<svg width="38" height="38" viewBox="0 0 38 38" fill="none" xmlns="http://www.w3.org/2000/svg">
<path d="M28.5 15.4375H26.125C26.1241 14.493 25.7484 13.5874 25.0805 12.9195C24.4126 12.2516 23.507 11.8759 22.5625 11.875V9.5C24.1366 9.50189 25.6458 10.128 26.7589 11.2411C27.872 12.3542 28.4981 13.8634 28.5 15.4375Z" fill="#002C89"/>
<path d="M33.2498 15.4375H30.8748C30.8723 13.2337 29.9957 11.1208 28.4374 9.56246C26.879 8.00411 24.7662 7.12752 22.5623 7.12501V4.75001C25.3959 4.75315 28.1125 5.88016 30.1161 7.88378C32.1197 9.88739 33.2467 12.604 33.2498 15.4375ZM24.1453 25.5099L26.8053 22.8499C27.1613 22.4937 27.6141 22.2499 28.1074 22.1486C28.6007 22.0473 29.1129 22.0929 29.5805 22.2799L32.82 23.5766C33.2974 23.7677 33.7067 24.0974 33.995 24.5233C34.2833 24.9491 34.4374 25.4516 34.4373 25.9659V31.8571C34.4382 32.2072 34.3675 32.5539 34.2298 32.8758C34.092 33.1977 33.89 33.4881 33.6361 33.7292C33.3822 33.9703 33.0817 34.1571 32.7531 34.278C32.4245 34.399 32.0747 34.4517 31.7251 34.4328C9.01771 33.0196 4.43159 13.7869 3.58015 6.42201C3.53891 6.06195 3.57437 5.69725 3.68419 5.35188C3.79401 5.00651 3.97571 4.68831 4.21733 4.41819C4.45895 4.14808 4.75502 3.93219 5.08606 3.7847C5.4171 3.63722 5.77562 3.5615 6.13803 3.56251H11.9247C12.439 3.56249 12.9415 3.71657 13.3673 4.00485C13.7932 4.29314 14.1229 4.70242 14.314 5.17989L15.6095 8.41939C15.7965 8.88699 15.8421 9.39918 15.7408 9.89248C15.6395 10.3858 15.3957 10.8385 15.0395 11.1946L12.3795 13.8546C12.3795 13.8546 13.8544 24.2238 24.1453 25.5099Z" fill="#002C89"/>
</svg>
