<svg width="72" height="72" viewBox="0 0 72 72" fill="none" xmlns="http://www.w3.org/2000/svg">
<rect width="72" height="72" rx="4" fill="#0062AB" fill-opacity="0.09"/>
<path d="M29.2632 36.846H17.2503C16.383 36.846 16.0157 36.6029 16.0018 36.0269C15.9879 35.4338 16.3723 35.1704 17.2631 35.1704C25.2874 35.1704 33.3122 35.1736 41.3372 35.18C41.7655 35.18 41.9432 35.0729 42.0792 34.6522C42.6242 32.9701 44.2623 31.8224 46.0182 31.8331C47.7741 31.8438 49.3994 32.9873 49.9358 34.68C50.0675 35.0954 50.257 35.1822 50.6499 35.1779C52.1146 35.1586 53.5793 35.1607 55.0397 35.1779C55.7892 35.1854 56.1875 35.7496 55.9134 36.3695C55.7313 36.7817 55.3716 36.8449 54.9797 36.8449C53.5151 36.8449 52.0493 36.8578 50.5846 36.8374C50.2163 36.8374 50.06 36.9338 49.9422 37.301C49.6742 38.1367 49.1481 38.8658 48.4396 39.3835C47.731 39.9012 46.8765 40.1809 45.9989 40.1822C45.122 40.1803 44.2681 39.9008 43.5598 39.3838C42.8514 38.8668 42.3249 38.1388 42.0556 37.3042C41.9421 36.953 41.7955 36.8342 41.4132 36.8363C37.3693 36.8524 33.3157 36.846 29.2632 36.846ZM43.5128 35.9894C43.5104 36.3199 43.5734 36.6476 43.6982 36.9536C43.823 37.2596 44.007 37.5378 44.2398 37.7724C44.4726 38.007 44.7494 38.1932 45.0545 38.3203C45.3595 38.4474 45.6867 38.5129 46.0171 38.513C46.675 38.5055 47.3037 38.2406 47.7686 37.7751C48.2335 37.3096 48.4976 36.6805 48.5043 36.0226C48.5049 35.6926 48.4404 35.3657 48.3145 35.0606C48.1887 34.7555 48.004 34.4782 47.7709 34.2445C47.5378 34.0108 47.261 33.8254 46.9562 33.6988C46.6514 33.5721 46.3247 33.5068 45.9946 33.5065C45.3366 33.5108 44.7068 33.7745 44.2421 34.2404C43.7774 34.7063 43.5154 35.3368 43.5128 35.9948V35.9894Z" fill="#002C89"/>
<path d="M46.9323 21C44.246 21 41.5607 21 38.8744 20.9926C38.5447 20.9926 38.4033 21.0782 38.2995 21.4101C38.0413 22.2574 37.5178 22.9993 36.8062 23.5265C36.0945 24.0537 35.2322 24.3383 34.3465 24.3384C33.4607 24.3429 32.5969 24.0628 31.8823 23.5392C31.1677 23.0157 30.6402 22.2764 30.3775 21.4305C30.2705 21.0718 30.1099 20.9926 29.7694 20.9936C25.618 21.0036 21.467 21.0058 17.3164 21C16.3678 21 15.9909 20.757 16.0037 20.1564C16.0166 19.5557 16.3956 19.3309 17.3474 19.3309C21.4824 19.3309 25.6173 19.3309 29.7523 19.3394C30.1217 19.3394 30.2758 19.242 30.3947 18.8758C30.6641 18.0408 31.1911 17.3127 31.9002 16.796C32.6092 16.2793 33.4638 16.0006 34.3412 16C35.2186 16.0004 36.0732 16.2797 36.7814 16.7976C37.4897 17.3155 38.0149 18.0452 38.2813 18.8812C38.399 19.2527 38.5618 19.3405 38.9237 19.3394C44.1978 19.328 49.472 19.328 54.7461 19.3394C54.9731 19.3308 55.2004 19.3499 55.4228 19.3962C55.851 19.5032 56.0202 19.8394 55.9891 20.2527C55.9592 20.6424 55.7525 20.9283 55.3318 20.9851C55.1376 21.0054 54.9423 21.0129 54.7472 21.0075L46.9323 21ZM34.3465 22.6639C35.0045 22.6622 35.6351 22.4 36.1003 21.9348C36.5656 21.4695 36.8277 20.839 36.8294 20.181C36.8296 19.851 36.7647 19.5242 36.6386 19.2193C36.5124 18.9143 36.3274 18.6372 36.0942 18.4038C35.8609 18.1704 35.584 17.9851 35.2792 17.8587C34.9744 17.7323 34.6476 17.6672 34.3176 17.667C33.6599 17.6778 33.0321 17.9443 32.5675 18.41C32.1028 18.8756 31.8377 19.5039 31.8283 20.1617C31.8286 20.4916 31.894 20.8181 32.0209 21.1226C32.1477 21.4271 32.3335 21.7036 32.5675 21.9361C32.8015 22.1686 33.0791 22.3526 33.3844 22.4775C33.6897 22.6024 34.0167 22.6657 34.3465 22.6639Z" fill="#002C89"/>
<path d="M30.0993 52.6878C29.4494 54.7542 28.0575 55.9169 26.171 56.0143C24.2492 56.1129 22.883 55.0657 21.8626 52.6878H17.2459C17.0671 52.6943 16.8881 52.6867 16.7105 52.6653C16.5054 52.64 16.3176 52.5372 16.1858 52.3779C16.054 52.2187 15.9882 52.015 16.0017 51.8087C16.021 51.3655 16.3112 51.0453 16.778 51.0314C17.5585 51.0068 18.3401 51.0186 19.1206 51.0175C20.0318 51.0175 20.9408 51.0175 21.8755 51.0175C21.929 50.8708 21.9825 50.7402 22.0264 50.6053C22.2901 49.7598 22.8162 49.0203 23.5285 48.4939C24.2408 47.9676 25.1023 47.6818 25.9879 47.6781C26.8729 47.672 27.7364 47.9514 28.45 48.4748C29.1636 48.9983 29.6894 49.7379 29.9494 50.5839C30.0683 50.9661 30.2546 51.025 30.6068 51.025C38.6283 51.0157 46.6505 51.0136 54.6735 51.0186C54.8849 51.0138 55.0965 51.0202 55.3073 51.0379C55.7538 51.0882 55.9679 51.389 55.9893 51.7991C56.0107 52.2092 55.8319 52.5379 55.3972 52.6342C55.1734 52.6752 54.9458 52.6921 54.7184 52.6846C46.729 52.6846 38.7393 52.6846 30.7492 52.6846L30.0993 52.6878ZM28.4933 51.8462C28.4933 51.1846 28.2305 50.5501 27.7626 50.0822C27.2948 49.6144 26.6603 49.3515 25.9987 49.3515C25.337 49.3515 24.7025 49.6144 24.2347 50.0822C23.7668 50.5501 23.504 51.1846 23.504 51.8462C23.504 52.5078 23.7668 53.1424 24.2347 53.6102C24.7025 54.0781 25.337 54.3409 25.9987 54.3409C26.6603 54.3409 27.2948 54.0781 27.7626 53.6102C28.2305 53.1424 28.4933 52.5078 28.4933 51.8462Z" fill="#002C89"/>
</svg>
