<svg width="72" height="72" viewBox="0 0 72 72" fill="none" xmlns="http://www.w3.org/2000/svg">
<rect width="72" height="72" rx="4" fill="#0062AB" fill-opacity="0.09"/>
<path d="M16.0031 42.2481C16.1012 41.767 16.1806 41.2817 16.3016 40.8059C16.8285 38.7319 18.0547 36.9033 19.7732 35.6283C21.4917 34.3534 23.5973 33.7102 25.7349 33.8073C26.0973 33.8158 26.4421 33.9655 26.6956 34.2247C26.949 34.4838 27.0912 34.8318 27.0916 35.1943C27.1052 35.7662 27.0916 36.3423 27.0916 36.9121C27.0916 37.9192 26.527 38.4994 25.5262 38.488C24.4356 38.4754 23.439 38.7489 22.5644 39.4022C21.8297 39.9381 21.2726 40.682 20.9649 41.5377C20.6572 42.3934 20.6131 43.3218 20.8382 44.2028C21.2734 45.9447 22.8566 47.3702 24.6517 47.6312C24.9346 47.6749 25.2201 47.699 25.5064 47.7032C29.2933 47.7073 33.0806 47.7073 36.8683 47.7032H37.2503C37.2503 47.459 37.2409 47.2534 37.2503 47.0499C37.2837 46.4654 37.5633 46.0344 38.1008 45.7975C38.6383 45.5606 39.1757 45.6347 39.5848 46.048C40.545 47.022 41.4842 48.0145 42.4026 49.0254C42.62 49.2676 42.738 49.583 42.733 49.9084C42.728 50.2339 42.6003 50.5454 42.3755 50.7808C41.471 51.7723 40.5495 52.7463 39.6109 53.703C39.2039 54.1204 38.6717 54.207 38.1311 53.9826C37.5905 53.7583 37.2858 53.3147 37.2503 52.7136C37.2503 52.6238 37.2503 52.5331 37.2503 52.3901H36.7765C33.0194 52.3901 29.253 52.4537 25.4928 52.3723C21.4081 52.2847 18.4515 50.3258 16.7368 46.6063C16.3893 45.8539 16.2859 44.9877 16.0699 44.1747C16.0501 44.1016 16.023 44.0307 16 43.9597L16.0031 42.2481ZM31.384 48.6476C29.4972 48.6476 27.6093 48.6476 25.7224 48.6476C25.3449 48.656 24.9674 48.6312 24.5942 48.5735C22.3818 48.1738 20.7902 46.9643 20.0566 44.8165C19.326 42.6885 19.8478 40.7777 21.4039 39.1809C22.4882 38.0632 23.8533 37.5497 25.4135 37.5581C26.0397 37.5581 26.1576 37.437 26.1586 36.8036C26.1586 36.3089 26.1639 35.8142 26.1586 35.3195C26.1534 34.9115 25.9948 34.7341 25.5909 34.7528C24.9564 34.7831 24.3135 34.7998 23.6905 34.9136C18.6122 35.8351 15.5878 41.3778 17.5414 46.1513C18.1937 47.7246 19.2981 49.069 20.7149 50.0142C22.1316 50.9594 23.797 51.463 25.5001 51.4612C29.3793 51.4727 33.2584 51.4612 37.1376 51.4612C38.1812 51.4612 38.1812 51.4612 38.1906 52.4882C38.1906 52.5404 38.1728 52.6019 38.1906 52.6426C38.2772 52.8033 38.345 53.0465 38.4776 53.0924C38.5724 53.1151 38.6711 53.1156 38.7662 53.0939C38.8612 53.0722 38.9499 53.0288 39.0255 52.9672C39.9021 52.078 40.7537 51.1628 41.6105 50.2538C41.8057 50.045 41.8516 49.805 41.6491 49.589C40.7704 48.6497 39.8875 47.7105 38.9868 46.7869C38.9206 46.7319 38.8421 46.6937 38.758 46.6756C38.6739 46.6574 38.5867 46.6598 38.5037 46.6825C38.4261 46.7313 38.3592 46.7954 38.3074 46.871C38.2555 46.9465 38.2196 47.0319 38.202 47.1219C38.1519 47.3859 38.1874 47.6666 38.1864 47.9401C38.1864 48.5151 38.0518 48.6487 37.4746 48.6497L31.384 48.6476Z" fill="#002C89"/>
<path d="M22.6425 16C22.8929 16.0595 23.1424 16.1158 23.3918 16.1785C24.4305 16.4411 25.3786 16.9802 26.1356 17.7384C26.8926 18.4965 27.4302 19.4456 27.6913 20.4847C27.9524 21.5237 27.9272 22.6141 27.6184 23.6401C27.3097 24.666 26.7289 25.5892 25.9377 26.3117C25.1465 27.0341 24.1745 27.5288 23.1248 27.7433C22.0751 27.9577 20.9869 27.884 19.9758 27.5298C18.9646 27.1756 18.0682 26.5542 17.3818 25.7316C16.6953 24.909 16.2445 23.9159 16.077 22.8576C16.0581 22.7845 16.0333 22.7129 16.0029 22.6437V21.2338C16.033 21.1663 16.0574 21.0965 16.076 21.025C16.387 19.2363 17.3081 17.8545 18.8395 16.8798C19.5992 16.3976 20.4477 16.1774 21.315 16.0031L22.6425 16ZM16.9411 21.932C16.9394 22.5884 17.0669 23.2388 17.3165 23.846C17.5661 24.4532 17.9328 25.0053 18.3957 25.4707C19.3307 26.4108 20.6007 26.9409 21.9265 26.9445C23.2523 26.9481 24.5253 26.4249 25.4653 25.4899C26.4053 24.555 26.9355 23.2849 26.9391 21.9591C26.9391 19.1977 24.712 16.9424 21.9725 16.9372C21.314 16.9343 20.6614 17.0612 20.0521 17.3108C19.4427 17.5603 18.8886 17.9276 18.4213 18.3915C17.954 18.8554 17.5827 19.4068 17.3287 20.0144C17.0748 20.6219 16.9431 21.2735 16.9411 21.932Z" fill="#002C89"/>
<path d="M48.5162 33.2459C51.049 32.2513 52.4204 28.6915 50.1912 26.1064C49.2185 24.9793 47.9578 24.4366 46.4686 24.4366C41.4592 24.4366 36.4474 24.4366 31.4331 24.4366C30.2674 24.4366 29.7518 23.9148 29.7518 22.7408C29.7518 22.2189 29.7455 21.6971 29.7518 21.1753C29.7654 20.3404 30.3561 19.7497 31.1899 19.7487C36.408 19.7487 41.6262 19.7049 46.8495 19.7633C52.0436 19.8217 56.2515 24.3803 55.9874 29.5514C55.7787 33.6049 52.9098 37.0655 48.9075 38.0622C48.5642 38.1467 48.4838 38.2772 48.4901 38.6017C48.5089 39.3761 48.177 39.9073 47.5675 40.116C47.0102 40.3081 46.4999 40.1954 46.0939 39.7769C45.1894 38.8439 44.2947 37.8987 43.4097 36.9413C42.8681 36.3517 42.9056 35.5846 43.4744 34.9731C44.2832 34.1079 45.1066 33.2553 45.9123 32.388C46.3548 31.9121 46.8568 31.647 47.5111 31.8599C48.1655 32.0728 48.4588 32.5581 48.5162 33.2459ZM39.1496 20.688C36.5461 20.688 33.9423 20.688 31.3381 20.688C30.8372 20.688 30.6932 20.8351 30.69 21.3392C30.69 21.7942 30.69 22.2503 30.69 22.7063C30.69 23.3993 30.7944 23.4995 31.4717 23.4995C36.4317 23.4995 41.3917 23.4995 46.3517 23.4995C46.7158 23.4993 47.0794 23.5237 47.4402 23.5725C51.0689 24.0672 53.2344 27.8785 51.7764 31.2296C51.1012 32.7815 49.924 33.8105 48.3168 34.3396C47.8294 34.4993 47.5727 34.301 47.5644 33.7823C47.5644 33.6132 47.6019 33.4316 47.5539 33.2772C47.4986 33.0966 47.4037 32.8545 47.2607 32.795C47.1177 32.7355 46.8349 32.8096 46.718 32.9286C45.8424 33.8188 44.9908 34.7341 44.134 35.642C43.9367 35.8508 43.9054 36.0929 44.1058 36.3068C44.9845 37.2461 45.8674 38.1853 46.7691 39.1089C46.8361 39.1628 46.9152 39.1996 46.9996 39.2159C47.084 39.2323 47.1711 39.2278 47.2534 39.2029C47.3943 39.134 47.5101 38.9284 47.5508 38.7604C47.6009 38.5517 47.5644 38.321 47.5644 38.0998C47.5644 37.4162 47.6051 37.3692 48.2949 37.244C52.8357 36.4268 55.9134 31.7712 54.8697 27.2784C53.9952 23.4922 50.5794 20.7266 46.6898 20.689C44.1747 20.6702 41.6616 20.689 39.1496 20.689V20.688Z" fill="#002C89"/>
<path d="M50.0651 55.9969C48.604 55.9969 47.1503 55.9969 45.6934 55.9969C44.6873 55.9969 44.1279 55.4333 44.1279 54.4242C44.1279 51.5104 44.1279 48.5962 44.1279 45.6817C44.1279 44.6965 44.6936 44.1257 45.6704 44.1246C48.5974 44.1246 51.5248 44.1246 54.4525 44.1246C55.4314 44.1246 56.0002 44.6955 56.0002 45.6775C56.0002 48.6046 56.0002 51.5316 56.0002 54.4586C56.0002 55.4166 55.4262 55.9948 54.4765 55.9969C53.005 55.9969 51.5345 55.9969 50.0651 55.9969ZM55.0609 50.0597C55.0609 48.6146 55.0609 47.1696 55.0609 45.7245C55.0609 45.2027 54.918 45.0608 54.3857 45.0608H45.7174C45.2112 45.0608 45.063 45.2069 45.063 45.7057C45.063 48.6091 45.063 51.5118 45.063 54.4137C45.063 54.9126 45.2123 55.0587 45.7184 55.0587H54.3868C54.918 55.0587 55.0609 54.9188 55.0609 54.3939C55.0609 52.9488 55.0609 51.5041 55.0609 50.0597Z" fill="#002C89"/>
<path d="M35.9793 41.8035C34.3272 41.8035 32.6731 41.7587 31.0231 41.8192C29.8104 41.863 29.0517 40.6628 29.6935 39.5566C31.3894 36.6345 33.0331 33.68 34.6883 30.7349C34.9857 30.2057 35.3949 29.8707 36.0221 29.878C36.6315 29.8854 37.0281 30.2224 37.3162 30.7359C38.9672 33.6695 40.5952 36.6157 42.2921 39.5222C42.9392 40.6295 42.2358 41.8703 40.9354 41.8181C39.2865 41.7493 37.6324 41.8035 35.9793 41.8035ZM35.9855 40.8643C37.6386 40.8643 39.2917 40.8643 40.9448 40.8643C41.6117 40.8643 41.787 40.5585 41.4572 39.9741C39.816 37.0644 38.1702 34.1569 36.5199 31.2515C36.4155 31.0709 36.1838 30.8403 36.0231 30.8497C35.8342 30.8601 35.5942 31.0699 35.4877 31.2556C33.8304 34.1569 32.184 37.0644 30.5483 39.9782C30.2195 40.5606 30.3959 40.8632 31.0701 40.8643C32.7072 40.8643 34.3457 40.8643 35.9855 40.8643Z" fill="#002C89"/>
</svg>
