<svg width="46" height="46" viewBox="0 0 46 46" fill="none" xmlns="http://www.w3.org/2000/svg">
<path d="M38.3335 7.6665H7.66683C5.5585 7.6665 3.85266 9.3915 3.85266 11.4998L3.8335 34.4998C3.8335 36.6082 5.5585 38.3332 7.66683 38.3332H38.3335C40.4418 38.3332 42.1668 36.6082 42.1668 34.4998V11.4998C42.1668 9.3915 40.4418 7.6665 38.3335 7.6665ZM37.5668 15.8123L24.016 24.284C23.4027 24.6673 22.5977 24.6673 21.9843 24.284L8.4335 15.8123C8.24131 15.7044 8.07301 15.5587 7.93878 15.3839C7.80456 15.2091 7.7072 15.0088 7.6526 14.7953C7.598 14.5818 7.58729 14.3594 7.62113 14.1416C7.65497 13.9238 7.73264 13.7151 7.84945 13.5282C7.96626 13.3413 8.11978 13.1801 8.30072 13.0542C8.48166 12.9284 8.68625 12.8406 8.90211 12.7961C9.11798 12.7516 9.34062 12.7514 9.55658 12.7954C9.77253 12.8395 9.9773 12.9269 10.1585 13.0523L23.0002 21.0832L35.8418 13.0523C36.023 12.9269 36.2278 12.8395 36.4438 12.7954C36.6597 12.7514 36.8824 12.7516 37.0982 12.7961C37.3141 12.8406 37.5187 12.9284 37.6996 13.0542C37.8805 13.1801 38.0341 13.3413 38.1509 13.5282C38.2677 13.7151 38.3454 13.9238 38.3792 14.1416C38.413 14.3594 38.4023 14.5818 38.3477 14.7953C38.2931 15.0088 38.1958 15.2091 38.0615 15.3839C37.9273 15.5587 37.759 15.7044 37.5668 15.8123Z" fill="#002C89"/>
</svg>
