<svg width="61" height="58" viewBox="0 0 61 58" fill="none" xmlns="http://www.w3.org/2000/svg">
<path d="M52.9929 29.8321V1.73244H45.0119C44.8456 1.73915 44.679 1.73582 44.5131 1.72246C43.991 1.65928 43.6518 1.2885 43.6967 0.807975C43.6975 0.697764 43.721 0.588898 43.7656 0.488128C43.8103 0.387358 43.8751 0.29683 43.9562 0.222158C44.0373 0.147487 44.1328 0.0902611 44.2369 0.0540312C44.341 0.0178013 44.4514 0.00333928 44.5613 0.0115402C45.4941 -0.00508684 46.4269 0.0115402 47.3613 0.0115402H53.4584C54.4976 0.0115402 54.7454 0.252633 54.7454 1.2885C54.7454 8.98347 54.7454 16.6779 54.7454 24.3718C54.7454 26.3836 54.7454 28.3955 54.7454 30.4074C54.7454 31.3584 54.4727 31.6278 53.5233 31.6278H6.73487C5.79378 31.6278 5.52441 31.3534 5.52441 30.3957C5.52441 20.6689 5.52441 10.9416 5.52441 1.21367C5.52441 0.287548 5.79544 0.0115402 6.69663 0.0115402H20.5719C20.7172 0.00290309 20.8629 0.00679834 21.0075 0.0231803C21.207 0.0420169 21.3926 0.133908 21.5286 0.281211C21.6645 0.428515 21.7412 0.620844 21.744 0.821275C21.7658 1.02133 21.7111 1.22221 21.5908 1.38353C21.4705 1.54486 21.2936 1.65466 21.0956 1.69087C20.8722 1.73341 20.6443 1.74849 20.4172 1.73576H7.28188V29.8354L52.9929 29.8321Z" fill="#66DAF9"/>
<path d="M8.99428 57.9981H1.22115C0.263434 57.9981 0.00905248 57.7437 0.00738978 56.7876C0.00738978 55.5023 -0.00923723 54.2171 0.00738978 52.9335C0.0556081 50.4062 1.986 48.2513 4.49668 48.1615C7.51781 48.0518 10.5489 48.0534 13.57 48.1615C16.0491 48.2513 17.9911 50.4028 18.0477 52.8886C18.0793 54.2187 18.061 55.5489 18.056 56.8674C18.056 57.7187 17.7667 57.9947 16.8805 57.9964L8.99428 57.9981ZM16.3384 56.2422C16.3384 55.1631 16.3384 54.1489 16.3384 53.1347C16.3168 51.2342 15.0083 49.8525 13.1095 49.8259C10.3943 49.7893 7.67575 49.796 4.96223 49.8259C3.41093 49.8425 2.06415 50.8235 1.85964 52.28C1.67841 53.5686 1.82138 54.9038 1.82138 56.2705H4.25391C4.25391 55.5689 4.25391 54.9503 4.25391 54.3318C4.25391 53.6019 4.56818 53.2078 5.12186 53.2128C5.67554 53.2178 5.97814 53.6119 5.98313 54.3468C5.98313 54.9786 5.98313 55.6104 5.98313 56.2289H12.0919C12.0919 55.5805 12.0919 54.9636 12.0919 54.3468C12.0919 53.6102 12.3928 53.2178 12.9449 53.2128C13.4969 53.2078 13.8144 53.6035 13.8211 54.3301C13.8211 54.9653 13.8211 55.5988 13.8211 56.2472L16.3384 56.2422Z" fill="#66DAF9"/>
<path d="M51.2368 57.9981H43.4021C42.4843 57.9981 42.2116 57.7271 42.2083 56.8242C42.2083 55.5589 42.1967 54.2952 42.2083 53.0316C42.2432 50.4045 44.177 48.2497 46.799 48.1549C49.7586 48.0468 52.7266 48.0485 55.6862 48.1549C58.2816 48.248 60.2137 50.3796 60.2586 52.9767C60.2819 54.3069 60.2702 55.6287 60.2586 56.9556C60.2586 57.6988 59.9493 57.9931 59.1862 57.9948C56.5402 58.0003 53.8904 58.0014 51.2368 57.9981ZM56.0254 56.2207H58.5427C58.5427 55.1416 58.5593 54.1074 58.5427 53.0732C58.5061 51.2076 57.1892 49.8509 55.317 49.8259C52.6002 49.791 49.8833 49.796 47.1698 49.8259C45.5936 49.8425 44.2551 50.8418 44.0522 52.3416C43.886 53.6135 44.0173 54.9271 44.0173 56.2223H46.4598C46.4598 55.519 46.4499 54.8589 46.4598 54.1972C46.4731 53.572 46.814 53.1995 47.3361 53.2078C47.8582 53.2162 48.1674 53.5886 48.184 54.2204C48.194 54.8855 48.184 55.5373 48.184 56.2157H54.2945C54.2945 55.524 54.2845 54.8656 54.2945 54.2071C54.3061 53.5753 54.6353 53.2095 55.1541 53.2095C55.6729 53.2095 56.0087 53.5803 56.0187 54.2071C56.0337 54.8656 56.0254 55.5257 56.0254 56.2207V56.2207Z" fill="#66DAF9"/>
<path d="M30.1403 57.9981H22.3057C21.3613 57.9981 21.0986 57.732 21.0953 56.7693C21.0953 55.6054 21.0853 54.4415 21.0953 53.2876C21.1252 50.2432 23.1454 48.1582 26.1865 48.1066C28.818 48.0634 31.45 48.0634 34.0826 48.1066C37.1254 48.1565 39.1455 50.2349 39.1805 53.2826C39.1921 54.4631 39.1805 55.6453 39.1805 56.8258C39.1805 57.7287 38.8945 57.9897 37.975 57.9897L30.1403 57.9981ZM37.4146 56.2306C37.4146 55.0019 37.5144 53.7947 37.3897 52.6126C37.2235 50.9698 35.9149 49.8492 34.2439 49.8275C31.5071 49.791 28.7697 49.791 26.0318 49.8275C24.3691 49.8492 23.0572 50.9715 22.8843 52.6109C22.7596 53.7947 22.8611 55.0002 22.8611 56.2156H25.3551C25.3551 55.5256 25.3551 54.8855 25.3551 54.2453C25.3551 53.6052 25.6644 53.2261 26.1748 53.2061C26.6853 53.1862 27.0461 53.5736 27.0561 54.247C27.066 54.9204 27.0561 55.5622 27.0561 56.2106H33.1897C33.1897 55.5256 33.1897 54.8805 33.1897 54.247C33.1897 53.6135 33.499 53.2261 34.0078 53.2061C34.5432 53.1862 34.8807 53.5719 34.8907 54.2453C34.9007 54.9187 34.8907 55.5622 34.8907 56.2306H37.4146Z" fill="#66DAF9"/>
<path d="M30.1388 14.9458H45.9444C46.151 14.933 46.3583 14.9419 46.5629 14.9724C46.7571 15.0103 46.9321 15.1146 47.0579 15.2673C47.1837 15.42 47.2525 15.6118 47.2525 15.8096C47.2525 16.0075 47.1837 16.1992 47.0579 16.3519C46.9321 16.5046 46.7571 16.6089 46.5629 16.6468C46.3577 16.6774 46.1499 16.6863 45.9428 16.6734H14.3315C14.1452 16.6843 13.9583 16.6793 13.7728 16.6584C13.3023 16.5769 13.0229 16.2827 13.0229 15.8088C13.0229 15.3349 13.3056 15.039 13.7745 14.9608C13.981 14.9392 14.189 14.9341 14.3963 14.9458H30.1388Z" fill="#66DAF9"/>
<path d="M30.1305 8.7441H14.3931C14.1857 8.75077 13.9781 8.74577 13.7712 8.72913C13.6673 8.72448 13.5654 8.69917 13.4714 8.65469C13.3773 8.6102 13.2931 8.54743 13.2236 8.47003C13.1541 8.39264 13.1007 8.30218 13.0666 8.20392C13.0324 8.10567 13.0182 8.0016 13.0247 7.89778C13.0112 7.69682 13.077 7.49857 13.2078 7.3454C13.3386 7.19223 13.5241 7.09629 13.7247 7.07807C13.9298 7.05283 14.1366 7.04337 14.3432 7.04981H45.9445C46.1107 7.04981 46.277 7.04981 46.4433 7.06145C46.9587 7.108 47.2597 7.41228 47.253 7.91109C47.2464 8.4099 46.9538 8.71584 46.4217 8.74244C46.2155 8.75408 46.0077 8.74244 45.7998 8.74244L30.1305 8.7441Z" fill="#66DAF9"/>
<path d="M56.4143 41.2413C56.4057 42.2645 56.0941 43.2623 55.5187 44.1085C54.9433 44.9546 54.1299 45.6113 53.1815 45.9954C52.2331 46.3795 51.192 46.4739 50.19 46.2666C49.1879 46.0594 48.2698 45.5597 47.5516 44.8308C46.8334 44.1019 46.3474 43.1765 46.1549 42.1715C45.9624 41.1665 46.0722 40.127 46.4703 39.1843C46.8683 38.2417 47.5369 37.4381 48.3915 36.8753C49.2461 36.3125 50.2483 36.0155 51.2715 36.0221C52.6448 36.0348 53.9571 36.5912 54.921 37.5694C55.8849 38.5477 56.4218 39.868 56.4143 41.2413V41.2413ZM47.7932 41.1781C47.7889 41.8615 47.9876 42.5307 48.3642 43.1009C48.7408 43.6712 49.2782 44.1167 49.9083 44.3811C50.5385 44.6455 51.2329 44.7168 51.9036 44.586C52.5743 44.4552 53.1911 44.1282 53.6757 43.6464C54.1603 43.1646 54.4909 42.5497 54.6256 41.8798C54.7603 41.2098 54.693 40.515 54.4323 39.8833C54.1716 39.2517 53.7291 38.7117 53.1611 38.3318C52.593 37.9519 51.925 37.7493 51.2416 37.7496C50.3292 37.7483 49.4536 38.1091 48.807 38.7529C48.1605 39.3967 47.7958 40.2707 47.7932 41.1831V41.1781Z" fill="#66DAF9"/>
<path d="M3.85999 41.1983C3.86625 40.1746 4.17581 39.1758 4.74955 38.328C5.3233 37.4802 6.13551 36.8215 7.08349 36.4352C8.03146 36.0488 9.07268 35.9521 10.0756 36.1574C11.0785 36.3626 11.998 36.8605 12.718 37.5882C13.438 38.3159 13.9262 39.2406 14.1208 40.2457C14.3154 41.2507 14.2077 42.2908 13.8113 43.2346C13.415 44.1785 12.7477 44.9836 11.8939 45.5484C11.0401 46.1131 10.0381 46.4121 9.01439 46.4075C8.33355 46.4051 7.65987 46.2683 7.03201 46.005C6.40416 45.7417 5.83446 45.357 5.35559 44.8731C4.87672 44.3891 4.49812 43.8154 4.24147 43.1848C3.98482 42.5541 3.85517 41.8791 3.85999 41.1983V41.1983ZM12.4861 41.2382C12.4884 40.5542 12.2876 39.885 11.9091 39.3153C11.5305 38.7457 10.9914 38.3012 10.36 38.0384C9.7286 37.7755 9.03335 37.706 8.36242 37.8388C7.69148 37.9715 7.07507 38.3005 6.59133 38.784C6.10759 39.2675 5.77831 39.8838 5.64524 40.5546C5.51218 41.2255 5.5813 41.9208 5.84387 42.5523C6.10644 43.1839 6.55063 43.7232 7.1201 44.102C7.68958 44.4808 8.3587 44.6819 9.04264 44.68C9.95316 44.6739 10.8247 44.3098 11.4691 43.6664C12.1134 43.023 12.4787 42.152 12.4861 41.2415V41.2382Z" fill="#66DAF9"/>
<path d="M30.232 36.0289C33.1135 36.1103 35.428 38.5096 35.3266 41.3096C35.293 42.6947 34.7106 44.0097 33.7075 44.9655C32.7044 45.9212 31.3627 46.4393 29.9776 46.4058C27.1643 46.321 24.8731 43.9117 24.943 41.1201C25.0161 38.2486 27.4104 35.9491 30.232 36.0289ZM30.1439 44.6749C30.8287 44.6739 31.4978 44.4702 32.067 44.0895C32.6362 43.7089 33.08 43.1682 33.3424 42.5357C33.6049 41.9032 33.6742 41.2072 33.5417 40.5353C33.4092 39.8635 33.0807 39.2459 32.5978 38.7604C32.1149 38.275 31.499 37.9433 30.8279 37.8073C30.1568 37.6712 29.4604 37.7369 28.8265 37.996C28.1927 38.2551 27.6497 38.696 27.266 39.2632C26.8823 39.8304 26.6751 40.4985 26.6705 41.1832C26.6692 42.107 27.034 42.9936 27.685 43.649C28.336 44.3044 29.2202 44.6751 30.1439 44.6799V44.6749Z" fill="#66DAF9"/>
<path d="M37.4317 22.8702H45.8865C46.094 22.8646 46.3016 22.8707 46.5084 22.8884C46.7096 22.9114 46.8958 23.0064 47.0326 23.1558C47.1693 23.3053 47.2475 23.4992 47.2525 23.7017C47.2576 23.9042 47.1893 24.1018 47.0601 24.2579C46.931 24.414 46.7498 24.5181 46.5499 24.5511C46.3453 24.5826 46.1383 24.5948 45.9314 24.5877H28.8953C27.9376 24.5877 27.5203 24.32 27.5269 23.7131C27.5336 23.1063 27.9326 22.8685 28.9136 22.8685L37.4317 22.8702Z" fill="#66DAF9"/>
<path d="M37.5392 1.72735C36.8143 1.72735 36.0894 1.73566 35.3628 1.72735C34.6977 1.71737 34.3202 1.37984 34.3385 0.827828C34.3552 0.304077 34.7127 0.00811565 35.3661 0.00645295C36.8393 -0.000197857 38.3113 -0.000197857 39.7822 0.00645295C40.4074 0.00645295 40.7798 0.347306 40.7798 0.862743C40.7798 1.37818 40.4024 1.71571 39.7723 1.72735C39.0324 1.73733 38.2858 1.72735 37.5392 1.72735Z" fill="#66DAF9"/>
<path d="M27.9012 0.00643636C28.6062 0.00643636 29.3112 -0.00187714 30.0162 0.00643636C30.5965 0.0147499 30.9773 0.338977 30.9972 0.827811C31.0172 1.31664 30.6231 1.71902 30.0212 1.72567C28.609 1.74008 27.1985 1.74008 25.7896 1.72567C25.1611 1.72567 24.792 1.37816 24.792 0.861064C24.792 0.343965 25.1611 0.0130881 25.7896 0.00477457C26.4896 -0.00686433 27.1946 0.00643636 27.9012 0.00643636Z" fill="#66DAF9"/>
</svg>
