<svg width="69" height="50" viewBox="0 0 69 50" fill="none" xmlns="http://www.w3.org/2000/svg">
<path d="M68.2429 20.8349C68.0082 21.356 67.8411 21.9234 67.5319 22.3911C67.2061 22.8974 66.759 23.3142 66.2312 23.6037C65.7035 23.8932 65.1118 24.0461 64.51 24.0487C63.5625 24.0718 62.6133 24.0487 61.6339 24.0487V42.2212C62.3715 42.2212 63.0773 42.2212 63.7812 42.2212C64.6522 42.2337 65.0059 42.5662 65.0112 43.4288C65.0383 44.2488 65.0146 45.0696 64.9402 45.8867C64.8201 46.8532 64.3733 47.7495 63.6739 48.4269C62.9745 49.1043 62.0646 49.5221 61.0953 49.6108C60.7646 49.6411 60.4305 49.6588 60.098 49.6588C41.7073 49.6588 23.3159 49.6588 4.9239 49.6588C2.93123 49.6588 1.36875 48.9866 0.437298 47.169C0.267306 46.7853 0.12125 46.3915 0 45.9898V42.9273C0.28619 42.3599 0.759021 42.175 1.37406 42.2159C1.88423 42.2461 2.39617 42.2034 2.90633 42.2265C3.29029 42.2426 3.42894 42.0825 3.4005 41.7179C3.3845 41.5187 3.4005 41.3177 3.4005 41.1186C3.4005 29.0723 3.4005 17.0272 3.4005 4.98332C3.38557 4.36346 3.4501 3.74425 3.59249 3.14081C3.82516 2.28885 4.31739 1.5306 5.00075 0.971523C5.68411 0.412444 6.52461 0.0803161 7.40538 0.0213409C7.6258 0.00533458 7.84977 0 8.07019 0C24.3516 0 40.6324 0 56.9126 0C59.355 0 61.0881 1.34454 61.5219 3.57476C61.5735 3.90294 61.5967 4.23497 61.5912 4.56715C61.6019 5.2074 61.5912 5.84944 61.5912 6.58573H63.4008C66.2733 6.58573 67.1746 7.17797 68.25 9.77633L68.2429 20.8349ZM59.5434 24.0629H58.708C52.7993 24.0629 46.8895 24.0629 40.9784 24.0629C40.4149 24.0629 39.9119 24.0095 39.6737 23.3871C39.4551 22.7931 39.8035 22.4267 40.1945 22.0692C41.7943 20.6037 43.3942 19.124 45.0206 17.6728C45.1639 17.5563 45.2772 17.4072 45.3511 17.238C45.425 17.0687 45.4574 16.8843 45.4455 16.7C45.4259 14.7045 45.4313 12.7073 45.4455 10.71C45.4455 8.22016 47.0897 6.59284 49.5855 6.58928C52.6749 6.58928 55.7631 6.58928 58.8502 6.58928H59.5754C59.5754 5.87789 59.5754 5.2821 59.5754 4.68453C59.5754 2.93272 58.6653 2.03281 56.8966 2.03281H8.09864C6.28018 2.03281 5.42338 2.89893 5.42338 4.7361C5.42338 16.9638 5.42338 29.1903 5.42338 41.4156V42.1412C5.66869 42.1572 5.82156 42.1732 5.97443 42.1732C13.8823 42.1732 21.7919 42.1732 29.7033 42.1732C30.816 42.1732 31.0489 42.351 31.2427 43.4288C31.2928 43.7257 31.4459 43.9954 31.6751 44.1906C31.9043 44.3857 32.1949 44.4938 32.4959 44.4959C32.8089 44.4941 33.1095 44.373 33.3364 44.1572C33.5633 43.9415 33.6994 43.6472 33.717 43.3345C33.8041 42.5218 34.2059 42.159 35.0218 42.159H58.6831H59.5434V24.0629ZM43.2484 22.0443H43.9132C50.6242 22.0443 57.3339 22.0443 64.0425 22.0443C65.4894 22.0443 66.2164 21.3329 66.22 19.8799C66.2295 16.8612 66.2295 13.8437 66.22 10.8274C66.22 9.34771 65.4859 8.62032 63.9998 8.62032C59.2229 8.62032 54.4465 8.62032 49.6708 8.62032C48.183 8.62032 47.4559 9.34593 47.4542 10.8239C47.4542 12.9972 47.4346 15.1723 47.4542 17.3473C47.4678 17.6222 47.4161 17.8964 47.3033 18.1475C47.1905 18.3985 47.0199 18.6192 46.8053 18.7915C45.6677 19.807 44.5283 20.8652 43.2484 22.0443ZM2.07088 44.2754C1.71536 46.2317 2.71614 47.6545 4.915 47.6545C23.3307 47.6082 41.7452 47.6082 60.1585 47.6545C62.0356 47.6545 63.319 46.4433 62.8711 44.2949H35.6422C35.5586 44.4728 35.4911 44.6328 35.4022 44.7858C34.7658 45.8902 33.813 46.5163 32.5314 46.5287C31.2498 46.5412 30.1992 45.956 29.6037 44.7947C29.3744 44.3483 29.1149 44.2611 28.6812 44.2611C20.7283 44.2706 12.776 44.2706 4.82434 44.2611L2.07088 44.2754Z" fill="#66DAF9"/>
<path d="M28.3985 24.8204C27.4742 23.6413 27.2449 22.3626 27.2965 20.9931C27.3356 19.9741 27.2964 18.9514 27.3107 17.9324C27.3226 16.6881 27.8065 15.4948 28.6646 14.594C29.5227 13.6933 30.6907 13.1523 31.9324 13.0806C35.3969 12.8548 37.6739 14.973 37.681 18.4303C37.681 19.0066 37.681 19.5846 37.681 20.1608C37.681 22.6827 37.681 22.6827 36.6643 24.8275C37.1549 24.9663 37.649 25.0836 38.129 25.2437C41.7801 26.4513 43.4617 29.729 43.284 32.3576C43.2057 33.439 43.284 34.5309 43.268 35.6176C43.268 36.4339 42.8769 36.9141 42.2512 36.9195C41.6255 36.9248 41.2362 36.4428 41.2291 35.6265C41.2291 34.5185 41.1704 33.4052 41.2291 32.3007C41.3713 30.0136 39.8639 28.0021 37.6739 27.2374C37.0108 26.9844 36.3156 26.8258 35.6084 26.7661C33.15 26.6363 30.6756 26.43 28.2439 26.9582C26.0006 27.4455 24.3812 28.6975 23.8124 31.0345C23.7497 31.3146 23.7187 31.601 23.72 31.8881C23.72 33.2184 23.72 34.5559 23.72 35.8808C23.72 36.4837 23.3751 36.8519 22.7921 36.9052C22.2357 36.955 21.7593 36.6385 21.7486 36.0978C21.7184 34.3051 21.5424 32.4679 21.8571 30.7285C22.4419 27.5059 24.7012 25.7488 27.78 24.9627L28.3985 24.8204ZM29.3211 19.8282C29.3211 20.4489 29.3087 21.0732 29.3211 21.6885C29.3602 23.4101 30.6187 24.6123 32.4212 24.6621C34.1437 24.7084 35.5124 23.595 35.6208 21.9446C35.7053 20.5516 35.7053 19.1547 35.6208 17.7616C35.5088 16.0027 34.1757 15.0263 32.1581 15.0939C31.4075 15.1154 30.6944 15.4266 30.1679 15.9623C29.6414 16.498 29.3424 17.2167 29.3335 17.9679C29.314 18.5868 29.314 19.2075 29.314 19.8282H29.3211Z" fill="#66DAF9"/>
<path d="M32.4836 5.82806C32.0624 5.82806 31.6393 5.85651 31.2233 5.82806C31.1053 5.82808 30.9884 5.80455 30.8795 5.75887C30.7706 5.71318 30.6719 5.64625 30.5892 5.56197C30.5064 5.47769 30.4413 5.37777 30.3976 5.26803C30.3539 5.15828 30.3324 5.04092 30.3346 4.9228C30.2955 4.35903 30.5852 3.9233 31.1345 3.88062C32.0378 3.8077 32.9455 3.8077 33.8488 3.88062C34.3963 3.92686 34.6861 4.36437 34.6398 4.92815C34.6344 5.16228 34.539 5.38533 34.3735 5.55093C34.208 5.71653 33.9851 5.81196 33.7511 5.81739C33.3262 5.86007 32.9031 5.82984 32.4836 5.82806Z" fill="#66DAF9"/>
</svg>
