<svg width="72" height="72" viewBox="0 0 72 72" fill="none" xmlns="http://www.w3.org/2000/svg">
<rect width="72" height="72" rx="4" fill="#0062AB" fill-opacity="0.09"/>
<path d="M37.2503 16C37.9809 16.0992 38.7188 16.1785 39.4473 16.3027C47.3441 17.6418 53.8027 23.7914 55.5207 31.5964C57.5037 40.633 53.2078 49.7176 44.9634 53.8904C33.3833 59.7582 19.1573 52.9468 16.4624 40.2499C16.2776 39.3753 16.1973 38.4756 16.0668 37.5905C16.0501 37.4767 16.023 37.364 16 37.2503V34.7505C16.1044 33.9917 16.1733 33.2277 16.3131 32.4763C17.3568 26.9351 20.2344 22.5807 24.8717 19.3827C25.1973 19.1583 25.5417 19.2042 25.738 19.4714C25.9342 19.7386 25.8653 20.0977 25.5292 20.3471L23.7904 21.6695C23.7392 21.7092 23.6964 21.7572 23.6077 21.8407L27.8703 25.8956C31.9012 22.8917 36.4289 22.0818 41.2122 24.2058C45.981 26.3224 48.4411 30.1926 48.9515 35.3862H54.8318C54.7702 34.7265 54.74 34.069 54.645 33.4208C53.9895 28.9579 52.0169 25.1754 48.6958 22.1235C45.7441 19.4099 42.2622 17.8119 38.2783 17.3224C34.7297 16.884 31.3334 17.4268 28.0832 18.911C27.625 19.1197 27.314 19.0508 27.1439 18.7106C26.9873 18.3922 27.1209 18.0718 27.505 17.8902C29.0684 17.1481 30.7253 16.6214 32.4303 16.3246C33.1964 16.192 33.9719 16.1096 34.7432 16.0052L37.2503 16ZM35.9978 47.7616C42.4564 47.7773 47.7209 42.5273 47.7658 36.027C47.8096 29.5705 42.5252 24.2705 36.0124 24.2392C29.5507 24.2079 24.2319 29.5288 24.2454 36.0114C24.2534 39.1247 25.4935 42.1083 27.6947 44.3101C29.8959 46.5119 32.8792 47.7528 35.9926 47.7616H35.9978ZM22.7059 22.6965C17.1888 28.0853 15.2767 37.0906 19.3597 44.7912C23.2288 52.0879 30.5631 54.8349 35.4133 54.7608C35.4133 52.8884 35.4133 51.0149 35.3997 49.1414C35.3997 49.059 35.2192 48.9233 35.1064 48.9045C34.5303 48.8064 33.9427 48.773 33.3718 48.654C24.5064 46.7941 20.2438 36.6919 25.1128 29.0497C25.619 28.2554 26.2463 27.5384 26.8871 26.6961L22.7059 22.6965ZM36.5875 54.7984C46.7795 54.5469 54.6721 45.9842 54.7838 36.6282C54.7379 36.6122 54.6902 36.6013 54.6419 36.5958C52.8195 36.5958 50.9972 36.5958 49.1748 36.5885C48.9379 36.5885 48.9034 36.7075 48.893 36.9017C48.8413 38.0734 48.6006 39.2291 48.1802 40.324C46.1512 45.4383 42.4052 48.3169 36.9173 48.8826C36.6303 48.9118 36.5833 49.0235 36.5844 49.2698C36.5917 50.9753 36.5844 52.6797 36.5844 54.3841L36.5875 54.7984Z" fill="#002C89"/>
<path d="M36.4109 30.3606H40.5858C40.6899 30.3505 40.7948 30.3505 40.8989 30.3606C41.3613 30.4535 41.7767 30.5161 42.1775 30.1059C42.3998 29.8784 42.7776 30.0016 43.0239 30.2447C43.718 30.9315 44.4142 31.6162 45.0926 32.3165C45.4412 32.6766 45.4057 33.092 45.0112 33.4866C44.1867 34.3215 43.3653 35.1565 42.523 35.9665C42.4148 36.0655 42.3304 36.1877 42.2762 36.324C42.2219 36.4603 42.1993 36.6071 42.2099 36.7534C42.2245 38.0059 42.2182 39.2521 42.2099 40.5014C42.2099 41.4972 41.7172 41.9856 40.7205 41.9867C37.8314 41.9867 34.9438 41.9867 32.0575 41.9867C31.0764 41.9867 30.588 41.5024 30.5869 40.5254C30.5869 37.6232 30.5869 34.7213 30.5869 31.8197C30.5869 30.8282 31.0587 30.3585 32.0398 30.3585C33.4975 30.3585 34.9546 30.3592 36.4109 30.3606ZM31.7736 34.8726C32.1494 34.4906 32.4458 34.1848 32.7474 33.8842C33.2484 33.3864 33.6043 33.3874 34.1043 33.8842C34.7952 34.5731 35.483 35.264 36.2648 36.0447C36.4289 35.8181 36.6063 35.6013 36.796 35.3955C36.8469 35.3398 36.9086 35.2951 36.9774 35.264C37.0462 35.233 37.1206 35.2164 37.196 35.2151C37.2714 35.2138 37.3463 35.228 37.4161 35.2567C37.4859 35.2854 37.5491 35.328 37.6018 35.382C37.8439 35.6126 37.8586 35.9487 37.6081 36.2169C37.3263 36.5228 37.0309 36.8181 36.724 37.0989C36.3932 37.4026 36.0112 37.3953 35.6709 37.0989C35.553 36.9945 35.4465 36.8808 35.3369 36.7701L33.4582 34.882L32.0095 36.3432L36.1761 40.5181L43.8506 32.8593L42.4113 31.4221L39.8228 34.0116C39.3605 34.4739 39.0578 34.5418 38.7624 34.2516C38.4671 33.9615 38.5286 33.6483 38.9889 33.1922C39.5191 32.6704 40.0525 32.1422 40.639 31.5619H31.7674L31.7736 34.8726ZM41.0398 37.5988L37.8335 40.8156C38.8136 40.8156 39.8228 40.8208 40.8321 40.8062C40.8804 40.7913 40.924 40.7643 40.9589 40.7277C40.9938 40.6912 41.0188 40.6464 41.0315 40.5975C41.044 39.5955 41.0398 38.5966 41.0398 37.5988ZM31.759 37.9798C31.759 38.8451 31.759 39.726 31.7663 40.6058C31.7663 40.6757 31.877 40.8041 31.9364 40.8052C32.8267 40.8177 33.7108 40.8135 34.5917 40.8135L31.759 37.9798Z" fill="#002C89"/>
</svg>
