<svg width="69" height="55" viewBox="0 0 69 55" fill="none" xmlns="http://www.w3.org/2000/svg">
<path d="M68.2411 40.7299C67.8513 41.2914 67.3137 41.4429 66.639 41.4429C63.9529 41.4144 61.265 41.4322 58.5789 41.4322H57.7672V44.2841C57.7672 44.5728 57.7903 44.8652 57.7672 45.1521C57.6729 46.1378 57.7832 46.8775 58.8352 47.4693C60.1115 48.1822 60.5067 49.8203 60.108 51.248C59.7324 52.6008 58.5326 53.6792 57.1798 53.8342C55.624 54.0125 54.3673 53.4653 53.568 52.0982C53.2921 51.6241 53.0091 51.4743 52.4857 51.4761C44.1586 51.4904 35.832 51.4904 27.5061 51.4761C27.0219 51.4761 26.7745 51.6045 26.5484 52.059C25.5925 53.9911 23.9798 55.0089 21.8508 54.9999C19.7486 54.9999 18.1554 53.9715 17.2102 52.0697C16.9681 51.5813 16.694 51.4547 16.1974 51.4761C13.8708 51.5759 11.5994 51.3638 9.43311 50.3639C4.62693 48.1359 1.65066 42.7191 2.45525 37.5466C3.32393 31.9694 7.5498 27.713 12.9576 27.1123C14.7377 26.9145 16.5462 26.9929 18.3441 26.9751C20.231 26.9555 22.1178 26.9751 24.0047 26.9751C24.3358 26.9751 24.5637 26.9751 24.6616 26.5366C25.2401 23.904 27.2943 22.2588 29.8754 22.2873C32.3781 22.323 34.3878 24.0697 34.9147 26.6899C34.929 26.7558 34.9432 26.82 34.9681 26.9377C35.1461 26.9483 35.3437 26.9697 35.5378 26.9697C40.2442 26.9697 44.9525 26.9858 49.659 26.9697C54.7233 26.9519 58.9047 23.1785 59.5401 18.0862C60.1489 13.1935 56.9217 8.50218 52.0639 7.28123C51.2669 7.08628 50.4508 6.98047 49.6305 6.96574C47.5656 6.92296 45.5008 6.96574 43.4359 6.94078C43.014 6.94078 42.8271 7.08873 42.6438 7.45769C41.6736 9.40765 40.0716 10.4557 37.9052 10.4486C35.7389 10.4414 34.1867 9.37913 33.2361 7.45947C33.0261 7.03704 32.8 6.94257 32.3799 6.94435C25.1635 6.95505 17.9472 6.95505 10.7308 6.94435C10.3196 6.94435 10.1202 7.05843 9.93509 7.44521C9.4204 8.58187 8.51238 9.49369 7.37869 10.0123C6.245 10.5309 4.96221 10.6213 3.76716 10.2668C2.58617 9.9226 1.56418 9.17254 0.880901 8.14845C0.197625 7.12436 -0.103175 5.89184 0.0313937 4.66762C0.165963 3.44341 0.72729 2.3059 1.61665 1.45514C2.50602 0.604373 3.66647 0.094831 4.89394 0.016121C7.30593 -0.185291 9.65205 1.52226 10.2626 3.92495C10.3231 4.15844 10.3765 4.3955 10.4406 4.65573H32.7324C32.7876 4.43828 32.8392 4.22795 32.8908 4.01941C33.1618 2.86604 33.818 1.83986 34.7506 1.11059C35.6832 0.381319 36.8365 -0.00734793 38.0197 0.00886468C39.2029 0.0250773 40.3452 0.445192 41.2575 1.19974C42.1699 1.95429 42.7977 2.99807 43.0372 4.15844C43.1368 4.63969 43.3487 4.69317 43.7492 4.69317C46.1238 4.70564 48.5055 4.63078 50.8694 4.7912C56.3075 5.15837 61.0318 9.73916 61.7278 15.1684C62.5841 21.9273 58.3688 27.7879 51.7256 29.0409C50.9616 29.1738 50.1871 29.2376 49.4116 29.2316C44.7264 29.2471 40.0389 29.2471 35.3491 29.2316C34.8987 29.2316 34.6709 29.3528 34.459 29.7806C33.4889 31.6896 31.9064 32.7269 29.7597 32.7216C27.6129 32.7162 26.082 31.6771 25.1137 29.802C24.9001 29.3867 24.6972 29.2263 24.2237 29.2298C20.9145 29.253 17.6072 29.2156 14.298 29.253C9.6841 29.3083 5.65047 32.7537 4.80494 37.3042C3.67638 43.3822 8.00905 48.9076 14.1663 49.2107C14.7858 49.241 15.4123 49.1911 16.03 49.2374C16.5267 49.2748 16.7064 49.0948 16.8168 48.6082C16.9793 47.878 17.2977 47.1916 17.7501 46.5963C18.2026 46.0009 18.7784 45.5107 19.438 45.1593C20.0976 44.8079 20.8253 44.6037 21.5712 44.5606C22.3171 44.5175 23.0635 44.6366 23.7591 44.9097C24.559 45.1989 25.2714 45.6889 25.828 46.3327C26.3847 46.9765 26.767 47.7527 26.9383 48.5868C27.0557 49.1001 27.2498 49.2463 27.7696 49.2463C36.029 49.2285 44.2891 49.2285 52.5498 49.2463C52.9681 49.2463 53.1729 49.1108 53.4292 48.749C53.8969 48.1164 54.4464 47.5488 55.0633 47.0611C55.341 46.8347 55.5421 46.7046 55.5386 46.3036C55.5124 41.9402 55.497 37.5757 55.4923 33.21C55.4923 32.7002 55.5101 32.1868 55.5528 31.6771C55.6026 31.0532 55.9853 30.7128 56.5817 30.6379C56.8508 30.6066 57.1215 30.6825 57.3354 30.8492C57.5491 31.0159 57.6889 31.2601 57.7245 31.5291C57.7921 32.0015 58.036 32.0247 58.4027 32.0229C61.1547 32.0229 63.9084 32.0354 66.6622 32.0068C67.3368 32.0068 67.8708 32.1601 68.25 32.7323V33.5344C67.5878 34.4773 66.9078 35.4077 66.2812 36.372C66.225 36.4859 66.1958 36.6112 66.1958 36.7382C66.1958 36.8653 66.225 36.9906 66.2812 37.1045C66.9078 38.0724 67.5842 39.0064 68.2393 39.9564L68.2411 40.7299ZM57.8153 39.0937H64.8963C64.5012 38.5215 64.1736 38.0242 63.8283 37.5412C63.4189 36.9851 63.4118 36.4522 63.8283 35.8907C64.1843 35.397 64.5225 34.8819 64.9213 34.2955H57.8295L57.8153 39.0937ZM8.18172 5.27067C8.18692 4.68733 8.01949 4.11551 7.70054 3.62734C7.38159 3.13917 6.92542 2.75651 6.38954 2.52763C5.85366 2.29875 5.26209 2.2339 4.68945 2.34126C4.11681 2.44862 3.58875 2.72338 3.17186 3.13088C2.75498 3.53838 2.46795 4.06038 2.34699 4.63102C2.22602 5.20167 2.27653 5.79541 2.49215 6.33735C2.70777 6.87928 3.07884 7.34514 3.55855 7.67617C4.03826 8.0072 4.60513 8.18856 5.18766 8.19738C5.57618 8.20209 5.96181 8.13013 6.32255 7.98559C6.68329 7.84105 7.01207 7.62678 7.2901 7.355C7.56813 7.08322 7.78997 6.75926 7.94296 6.40163C8.09594 6.044 8.17707 5.6597 8.18172 5.27067ZM18.9333 49.724C18.9295 50.3067 19.098 50.8775 19.4177 51.3644C19.7373 51.8514 20.1937 52.2327 20.7294 52.4604C21.2651 52.688 21.8561 52.7518 22.4279 52.6437C22.9997 52.5356 23.5268 52.2604 23.9427 51.8529C24.3587 51.4453 24.6448 50.9236 24.7651 50.3535C24.8854 49.7834 24.8345 49.1904 24.6188 48.6492C24.4031 48.108 24.0323 47.6428 23.553 47.3123C23.0737 46.9818 22.5075 46.8007 21.9256 46.7919C21.1421 46.789 20.389 47.0949 19.8291 47.6436C19.2691 48.1923 18.9473 48.9396 18.9333 49.724ZM29.8095 24.535C29.2263 24.5294 28.6545 24.6969 28.1663 25.0163C27.678 25.3357 27.2951 25.7927 27.0659 26.3297C26.8367 26.8667 26.7714 27.4596 26.8783 28.0337C26.9852 28.6078 27.2594 29.1374 27.6664 29.5556C28.0735 29.9738 28.5951 30.262 29.1655 30.3838C29.7359 30.5056 30.3295 30.4556 30.8715 30.24C31.4136 30.0245 31.8797 29.653 32.2112 29.1725C32.5427 28.692 32.7246 28.124 32.7342 27.5401C32.7405 27.1497 32.6696 26.7619 32.5255 26.3991C32.3814 26.0363 32.1669 25.7056 31.8945 25.4262C31.6221 25.1468 31.2971 24.9242 30.9384 24.7713C30.5796 24.6183 30.1941 24.538 29.8042 24.535H29.8095ZM40.9171 5.23501C40.9188 4.64941 40.7474 4.07639 40.4244 3.5882C40.1014 3.10001 39.6413 2.71849 39.102 2.49173C38.5628 2.26497 37.9686 2.20312 37.3944 2.31398C36.8201 2.42483 36.2915 2.70343 35.8751 3.11466C35.4587 3.52589 35.1732 4.05134 35.0546 4.62478C34.936 5.19822 34.9896 5.79399 35.2086 6.33699C35.4276 6.87999 35.8023 7.34591 36.2853 7.67603C36.7684 8.00615 37.3382 8.1857 37.923 8.19204C38.7094 8.18981 39.4635 7.87884 40.0233 7.32593C40.5831 6.77302 40.9041 6.02228 40.9171 5.23501ZM56.6796 51.5777C56.8573 51.5765 57.0329 51.5392 57.1958 51.4682C57.3587 51.3972 57.5056 51.2938 57.6275 51.1644C57.7494 51.035 57.8439 50.8822 57.9053 50.7152C57.9666 50.5482 57.9935 50.3705 57.9844 50.1928C57.9603 49.8491 57.8048 49.528 57.5503 49.2961C57.2958 49.0643 56.9618 48.9397 56.6178 48.9482C56.2739 48.9567 55.9465 49.0977 55.7037 49.3418C55.4608 49.5859 55.3214 49.9143 55.3143 50.2587C55.3124 50.4369 55.3468 50.6135 55.4153 50.778C55.4838 50.9424 55.585 51.0911 55.7127 51.2152C55.8404 51.3392 55.992 51.436 56.1582 51.4995C56.3244 51.5631 56.5018 51.5921 56.6796 51.5848V51.5777Z" fill="#66DAF9"/>
</svg>
