<svg width="58" height="62" viewBox="0 0 58 62" fill="none" xmlns="http://www.w3.org/2000/svg">
<path d="M27.7122 61.9909C26.743 61.7494 25.7497 61.5607 24.8107 61.2527C22.9207 60.6398 21.9425 59.254 21.9319 57.2703C21.9213 55.1207 21.9319 52.971 21.9319 50.8213V50.1812C20.4721 49.6815 20.3332 49.4717 20.2124 47.9364C19.9043 43.9731 18.5367 40.1654 16.2527 36.9118C15.1341 35.2919 13.9445 33.7189 13.2894 31.8334C11.2574 25.9837 12.1828 20.5959 16.2588 15.9735C22.1674 9.27383 31.8304 8.34391 39.0675 13.5807C40.8276 14.8651 42.3015 16.5014 43.3955 18.3858C43.7865 19.0501 43.7307 19.5724 43.2325 19.8607C42.7343 20.1491 42.2528 19.9437 41.8542 19.2901C39.4962 15.4345 36.0709 13.1203 31.6447 12.278C24.3654 10.8906 17.074 15.0738 14.7673 22.0617C13.3603 26.3264 13.9732 30.4038 16.5018 34.125C17.9269 36.2204 19.361 38.2961 20.3106 40.6646C21.2309 42.9582 21.8018 45.3768 22.0043 47.8398C22.0164 47.9772 22.0376 48.1131 22.0572 48.2746H23.6362V46.688C23.6362 46.1626 23.7676 45.7082 24.2174 45.3656C24.2767 45.2972 24.3208 45.2171 24.3468 45.1304C24.3728 45.0438 24.3802 44.9526 24.3684 44.8629C24.2733 43.9858 24.142 43.1117 24.0318 42.2361C23.9518 41.587 24.2507 41.1372 24.7866 41.0692C25.2908 41.0073 25.6923 41.347 25.7829 41.975C25.9188 42.8677 26.039 43.7629 26.1437 44.6606C26.1845 45.0199 26.3082 45.1784 26.7053 45.1723C28.1741 45.1497 29.6445 45.1588 31.1133 45.1723C31.4047 45.1723 31.61 45.1391 31.6568 44.7844C32.1308 41.187 32.6154 37.5896 33.0985 33.9665C33.0049 33.9665 32.9369 33.9454 32.8992 33.9665C31.9119 34.6217 30.9367 34.5311 29.9721 33.9212C29.2595 33.4683 28.5923 33.5121 27.9266 34.0058C27.7756 34.1114 27.6005 34.1567 27.448 34.2594C27.2299 34.4056 26.9758 34.4889 26.7134 34.5001C26.4511 34.5113 26.1908 34.4499 25.961 34.3228C25.5867 34.1401 25.1836 34.0209 24.7081 33.8337C24.8469 34.8904 24.9753 35.855 25.1006 36.8227C25.1353 37.1005 25.1745 37.3797 25.1851 37.6605C25.2047 38.1844 24.9239 38.5165 24.4303 38.5829C24.3201 38.6062 24.2061 38.6058 24.096 38.5819C23.9859 38.558 23.8821 38.5111 23.7914 38.4442C23.7007 38.3774 23.6253 38.2921 23.5699 38.1939C23.5145 38.0958 23.4805 37.9871 23.4702 37.8749C23.2905 36.8061 23.1562 35.7312 23.0052 34.6579C22.9267 34.1009 22.8437 33.5453 22.7788 32.9868C22.6625 31.9965 23.3917 31.4107 24.3292 31.7504C24.9707 31.9829 25.5912 32.2757 26.2403 32.4871C26.4957 32.5676 26.7713 32.5564 27.0193 32.4554C29.2082 31.3836 28.5289 31.3911 30.8567 32.3724C31.3005 32.5596 31.6674 32.6033 32.0991 32.3724C32.5445 32.1394 33.0056 31.9377 33.4789 31.7685C34.4481 31.4047 35.1817 31.995 35.0474 33.0275C34.8089 34.8587 34.5568 36.6883 34.3092 38.518C34.0208 40.645 33.728 42.7721 33.4517 44.9021C33.4321 45.0531 33.4819 45.2871 33.5861 45.355C34.0963 45.7143 34.2005 46.2185 34.1899 46.7831C34.1899 47.2616 34.1899 47.7402 34.1899 48.2625H35.7524C35.8777 47.3567 35.9849 46.451 36.1313 45.5452C36.6983 41.9187 38.1455 38.4863 40.3461 35.5486C41.9085 33.4623 43.1404 31.2462 43.5722 28.6406C43.8378 26.9511 43.8092 25.2284 43.4876 23.5487C43.3548 22.8135 43.6386 22.341 44.2047 22.261C44.7361 22.187 45.0984 22.5448 45.2342 23.2679C46.0902 27.8118 45.1799 31.9753 42.4173 35.6844C40.325 38.4938 38.7399 41.5221 38.0575 44.9746C37.8543 46.038 37.7066 47.1113 37.6152 48.19C37.499 49.4506 37.191 49.8597 35.8988 50.1435V56.7978C35.8988 59.4985 34.9085 60.7998 32.2757 61.5154C31.5632 61.7101 30.8356 61.8399 30.114 62L27.7122 61.9909ZM23.7872 56.739C23.5668 58.2486 24.0891 59.1166 25.4659 59.6072C27.6971 60.4126 30.1396 60.4126 32.3708 59.6072C33.7506 59.1226 34.2669 58.2591 34.051 56.739H23.7872ZM23.7434 51.8931H34.0707V50.1284H23.7434V51.8931ZM23.7434 54.8716H34.0752V53.7605H23.7434V54.8716ZM32.3784 46.9929H25.4644V48.2474H32.3784V46.9929Z" fill="#66DAF9"/>
<path d="M3.65482 30.0507C2.81095 30.0507 1.96556 30.0507 1.12018 30.0507C0.410667 30.0507 -0.00597369 29.7035 6.47467e-05 29.1449C6.47467e-05 28.615 0.407643 28.2633 1.07791 28.2588C2.80792 28.2487 4.53844 28.2487 6.26946 28.2588C6.94878 28.2588 7.34431 28.5999 7.35639 29.1343C7.36997 29.6944 6.96237 30.0401 6.25134 30.0401C5.38634 30.0567 4.51983 30.0507 3.65482 30.0507Z" fill="#66DAF9"/>
<path d="M54.1001 30.0492C53.2547 30.0492 52.4108 30.0567 51.5654 30.0492C50.8876 30.0416 50.4936 29.7141 50.4845 29.1736C50.4755 28.6332 50.865 28.2678 51.5413 28.2678C53.2914 28.2558 55.0415 28.2558 56.7917 28.2678C57.4559 28.2678 57.8484 28.6392 57.8484 29.1736C57.8484 29.708 57.4393 30.0431 56.7675 30.0507C55.8708 30.0567 54.9862 30.0492 54.1001 30.0492Z" fill="#66DAF9"/>
<path d="M9.07278 49.9186C8.82218 49.7404 8.49157 49.6167 8.38288 49.3993C8.26211 49.1502 8.3059 48.7954 8.35571 48.5026C8.38138 48.3516 8.56404 48.2157 8.69235 48.0889C9.85677 46.9215 11.0227 45.7561 12.1901 44.5927C12.285 44.4884 12.3897 44.3933 12.5026 44.3089C12.9238 44.0281 13.345 44.0281 13.6967 44.4115C14.0756 44.8267 14.0122 45.278 13.6424 45.6524C12.3592 46.9608 11.0635 48.253 9.75512 49.5291C9.59662 49.6861 9.35206 49.7616 9.07278 49.9186Z" fill="#66DAF9"/>
<path d="M49.7398 48.989C49.53 49.2577 49.3956 49.5823 49.1661 49.6804C48.8781 49.7897 48.5586 49.781 48.277 49.6562C47.9509 49.4887 47.7018 49.1656 47.4301 48.9014C46.3613 47.8447 45.291 46.7759 44.2312 45.7026C43.9097 45.378 43.7783 44.9931 44.035 44.5568C44.1259 44.3855 44.2751 44.2523 44.4556 44.1814C44.6361 44.1105 44.8361 44.1066 45.0192 44.1703C45.2262 44.2425 45.4127 44.3637 45.5627 44.5236C46.7945 45.7373 48.0173 46.9596 49.2311 48.1904C49.4303 48.3851 49.5436 48.6705 49.7398 48.989Z" fill="#66DAF9"/>
<path d="M13.9926 13.3846C13.8537 13.5839 13.7374 13.916 13.5125 14.0262C13.2634 14.1485 12.9087 14.1062 12.6068 14.0594C12.4558 14.0353 12.3184 13.8526 12.1901 13.7258C11.0217 12.5634 9.85424 11.3995 8.68781 10.2341C8.63196 10.1767 8.57308 10.1208 8.52025 10.0605C8.13681 9.61512 8.11113 9.11997 8.45533 8.76219C8.8282 8.37422 9.33393 8.37271 9.78832 8.81804C11.0655 10.071 12.326 11.3421 13.591 12.6087C13.6769 12.693 13.7496 12.7897 13.8069 12.8955C13.8778 13.055 13.9398 13.2183 13.9926 13.3846Z" fill="#66DAF9"/>
<path d="M49.7405 9.3239C49.5427 9.64998 49.4385 9.92775 49.2544 10.1119C48.0286 11.3609 46.7917 12.5982 45.5438 13.8241C45.0728 14.2875 44.5263 14.3132 44.1579 13.9312C43.7896 13.5493 43.8047 13.0572 44.2591 12.5967C45.5166 11.3241 46.7711 10.047 48.0739 8.82271C48.2973 8.61137 48.7819 8.52985 49.0913 8.60684C49.3434 8.66722 49.514 9.0567 49.7405 9.3239Z" fill="#66DAF9"/>
<path d="M29.8057 3.9903C29.8057 4.8538 29.8163 5.7173 29.8057 6.58079C29.7952 7.26012 29.457 7.63752 28.9136 7.63752C28.3701 7.63752 28.0455 7.26012 28.041 6.56268C28.0299 4.83569 28.0299 3.10869 28.041 1.3817C28.041 0.700866 28.3777 0.303839 28.9045 0.291762C29.4314 0.279685 29.7982 0.691809 29.8103 1.40434C29.8133 2.26482 29.8057 3.12832 29.8057 3.9903Z" fill="#66DAF9"/>
</svg>
