<svg width="72" height="72" viewBox="0 0 72 72" fill="none" xmlns="http://www.w3.org/2000/svg">
<rect width="72" height="72" rx="4" fill="#0062AB" fill-opacity="0.09"/>
<path d="M37.2498 16.001C37.3292 16.0417 37.4127 16.0751 37.4868 16.1232C37.7446 16.2902 37.8614 16.5239 37.7633 16.8245C37.7305 16.9525 37.6533 17.0647 37.5455 17.1411C37.4377 17.2176 37.3063 17.2533 37.1747 17.242C37.0357 17.2452 36.9005 17.1969 36.7951 17.1063C36.6897 17.0157 36.6215 16.8893 36.6038 16.7515C36.5474 16.4436 36.6768 16.2202 36.9576 16.0866C37.0265 16.0532 37.1006 16.0282 37.1663 16L37.2498 16.001Z" fill="#002C89"/>
<path d="M34.7502 56.0795C34.5686 55.9136 34.3202 55.7789 34.22 55.5733C34.0843 55.2926 34.2972 54.969 34.5968 54.8646C34.7403 54.8163 34.8967 54.8238 35.035 54.8855C35.1733 54.9472 35.2833 55.0586 35.3432 55.1976C35.4031 55.3367 35.4086 55.4932 35.3585 55.636C35.3084 55.7789 35.2064 55.8977 35.0727 55.9689C34.9944 56.0117 34.9099 56.043 34.8285 56.0795H34.7502Z" fill="#002C89"/>
<path d="M16 35.8838C16.0391 35.8166 16.0827 35.7521 16.1305 35.6907C16.182 35.6236 16.2471 35.5682 16.3215 35.528C16.396 35.4879 16.4781 35.4639 16.5624 35.4577C16.6468 35.4515 16.7315 35.4632 16.811 35.492C16.8906 35.5208 16.9631 35.5661 17.0239 35.625C17.1324 35.7384 17.1943 35.8885 17.1974 36.0455C17.2005 36.2024 17.1445 36.3548 17.0406 36.4725C16.7901 36.7386 16.4144 36.7292 16.1472 36.4485C16.095 36.3931 16.0491 36.3337 16 36.2752V35.8838Z" fill="#002C89"/>
<path d="M24.3004 47.0597L26.4243 44.9316L26.1509 44.6102C23.4873 41.4373 22.4906 37.8052 23.1607 33.7138C23.2473 33.192 23.5009 32.9686 23.8798 33.0333C24.2764 33.1012 24.4402 33.4101 24.3453 33.9507C24.0155 35.82 24.0718 37.6789 24.6761 39.4824C26.2615 44.1958 29.5075 47.0733 34.4307 47.7757C40.6543 48.6629 46.2851 44.5851 47.6054 38.4178C48.979 32.0042 44.5567 25.456 38.1233 24.3757C32.7482 23.474 27.7906 25.9966 25.3347 30.8895C25.1907 31.1776 25.0216 31.4114 24.6657 31.3905C24.2138 31.3665 23.9862 30.9198 24.1992 30.4595C24.6874 29.4068 25.3197 28.4271 26.0778 27.5486C26.1206 27.4985 26.1603 27.4442 26.1665 27.439L23.9841 25.2472C21.6108 26.6395 19.3678 25.4789 18.4327 24.0386C17.9008 23.2224 17.6807 22.242 17.8125 21.2768C17.9444 20.3116 18.4194 19.4261 19.1507 18.7825C19.8737 18.152 20.7975 17.7997 21.7567 17.7886C22.7158 17.7775 23.6476 18.1084 24.3849 18.7219C25.7887 19.9003 26.5005 22.2048 25.0112 24.2818L27.1362 26.4204C29.6077 24.1962 32.5635 22.9761 35.9733 22.9761C39.3831 22.9761 42.3472 24.1826 44.8448 26.436L46.9802 24.3016C45.4825 22.2069 46.1985 19.8899 47.6221 18.7084C48.3734 18.0901 49.3229 17.7645 50.2955 17.7915C51.268 17.8186 52.198 18.1965 52.9137 18.8555C53.6229 19.5132 54.0736 20.4027 54.1845 21.3635C54.2953 22.3244 54.0589 23.2931 53.518 24.095C52.5223 25.5697 50.2752 26.5936 47.9864 25.2347L45.8029 27.4192C47.9321 29.9043 49.075 32.8413 49.0384 36.1999C49.0019 39.5586 47.7964 42.4507 45.6098 44.8909L47.7484 47.0462C48.6877 46.3542 49.817 46.0515 51.0591 46.3271C52.0006 46.5247 52.837 47.0609 53.4095 47.8342C53.9838 48.5952 54.2699 49.5352 54.217 50.4872C54.1641 51.4391 53.7756 52.3416 53.1205 53.0343C52.4654 53.7271 51.5861 54.1653 50.6386 54.2713C49.691 54.3773 48.7366 54.1441 47.9446 53.6132C46.1307 52.3858 45.7309 50.4038 46.8038 48.0283L44.6329 45.8511C42.1614 47.9751 39.2818 49.1159 35.9847 49.1106C32.6877 49.1054 29.8331 47.973 27.3762 45.8595L25.2032 48.0429C26.2594 50.5019 25.8294 52.487 23.9612 53.6717C23.1552 54.1818 22.1946 54.3897 21.2498 54.2585C20.3051 54.1274 19.4374 53.6656 18.8009 52.9553C18.1644 52.2449 17.8002 51.3319 17.7731 50.3785C17.746 49.4251 18.0577 48.4929 18.6529 47.7475C19.7237 46.3918 22.0439 45.466 24.3004 47.0597ZM50.1844 24.6387C50.5567 24.639 50.9253 24.5659 51.2692 24.4235C51.6132 24.2811 51.9256 24.0723 52.1888 23.809C52.4519 23.5456 52.6605 23.233 52.8026 22.889C52.9447 22.545 53.0176 22.1763 53.0171 21.804C53.0084 21.0593 52.7087 20.3476 52.1821 19.821C51.6555 19.2944 50.9437 18.9947 50.199 18.986C49.8272 18.9875 49.4593 19.0623 49.1164 19.2061C48.7735 19.3499 48.4622 19.5598 48.2005 19.824C47.9388 20.0881 47.7317 20.4012 47.5911 20.7455C47.4505 21.0897 47.3791 21.4583 47.381 21.8301C47.3809 22.1989 47.4534 22.5641 47.5944 22.9049C47.7355 23.2456 47.9423 23.5552 48.203 23.816C48.4637 24.0769 48.7732 24.2838 49.1139 24.4249C49.4546 24.5661 49.8198 24.6387 50.1886 24.6387H50.1844ZM47.38 50.2598C47.38 50.8179 47.5458 51.3635 47.8562 51.8273C48.1667 52.2911 48.608 52.6523 49.124 52.865C49.64 53.0777 50.2076 53.1324 50.7547 53.0222C51.3019 52.9119 51.8039 52.6417 52.1973 52.2457C52.5906 51.8497 52.8575 51.3458 52.9641 50.7979C53.0707 50.25 53.0123 49.6829 52.7961 49.1683C52.5799 48.6537 52.2158 48.2149 51.7499 47.9075C51.284 47.6001 50.7373 47.438 50.1792 47.4417C49.4359 47.4494 48.7256 47.7494 48.2017 48.2767C47.6779 48.8041 47.3827 49.5165 47.38 50.2598ZM24.6187 50.2149C24.6059 49.4675 24.2966 48.7558 23.759 48.2365C23.2214 47.7171 22.4996 47.4325 21.7522 47.4454C21.0048 47.4583 20.2931 47.7675 19.7737 48.3051C19.2544 48.8427 18.9698 49.5646 18.9827 50.3119C18.9891 50.682 19.0683 51.0472 19.2158 51.3867C19.3633 51.7261 19.5762 52.0332 19.8424 52.2904C20.1086 52.5475 20.4228 52.7498 20.7671 52.8855C21.1115 53.0212 21.4792 53.0878 21.8492 53.0814C22.2193 53.0751 22.5845 52.9959 22.924 52.8484C23.2634 52.7008 23.5705 52.4879 23.8277 52.2217C24.0848 51.9556 24.2871 51.6413 24.4228 51.297C24.5585 50.9527 24.6251 50.5849 24.6187 50.2149ZM24.6187 21.8134C24.6185 21.0683 24.3243 20.3534 23.7999 19.824C23.2756 19.2946 22.5635 18.9934 21.8184 18.986C21.0668 18.9885 20.3466 19.2877 19.8145 19.8186C19.2824 20.3495 18.9816 21.0691 18.9775 21.8207C18.9792 22.1929 19.0544 22.5611 19.1986 22.9043C19.3428 23.2474 19.5532 23.5587 19.8179 23.8205C20.0825 24.0822 20.3962 24.2892 20.7409 24.4296C21.0856 24.57 21.4546 24.6411 21.8268 24.6387C22.1957 24.6367 22.5606 24.562 22.9007 24.4189C23.2407 24.2758 23.5492 24.0671 23.8086 23.8047C24.068 23.5423 24.2731 23.2314 24.4123 22.8897C24.5515 22.5481 24.622 22.1823 24.6198 21.8134H24.6187Z" fill="#002C89"/>
<path d="M39.1329 36.3972C40.6056 37.1456 41.7203 38.1955 42.4384 39.6265C42.6955 40.152 42.9003 40.7016 43.05 41.2672C43.1965 41.767 43.1675 42.3019 42.9677 42.7829C42.768 43.2639 42.4095 43.662 41.952 43.9109C40.1656 44.9232 38.1469 45.454 36.0936 45.4514C35.6762 45.4514 35.41 45.227 35.3944 44.8774C35.3787 44.5277 35.6501 44.2626 36.0874 44.2512C37.8501 44.2281 39.5826 43.7897 41.1442 42.9716C41.857 42.5969 42.0679 42.1429 41.8393 41.3632C41.2986 39.5169 40.1485 38.1893 38.395 37.4075C38.2108 37.3382 38.0072 37.3412 37.8252 37.4159C36.5978 37.9691 35.3871 37.968 34.1649 37.4044C34.0196 37.3368 33.8545 37.3256 33.7015 37.3731C31.7883 38.1903 30.5922 39.6286 30.0954 41.6471C29.9702 42.1543 30.2123 42.6605 30.7384 42.8995C31.4815 43.2388 32.2486 43.5258 33.0074 43.8284C33.1118 43.8723 33.2339 43.89 33.3414 43.9328C33.4842 43.9833 33.6026 44.0859 33.6731 44.22C33.7435 44.3541 33.7607 44.5099 33.7213 44.6561C33.6793 44.8081 33.5789 44.9372 33.442 45.0155C33.3052 45.0937 33.1429 45.1146 32.9907 45.0736C31.9125 44.8204 30.8807 44.3999 29.9326 43.8274C29.0705 43.2909 28.6906 42.2754 28.9411 41.2714C29.4567 39.2017 30.6559 37.6486 32.4981 36.5872C32.6097 36.5235 32.7235 36.463 32.8675 36.3837C31.9762 35.3713 31.8029 34.1752 31.8426 32.8998C31.8781 31.7402 31.8426 30.5785 31.851 29.4179C31.8604 27.748 32.9802 26.6302 34.6491 26.6197C35.56 26.6149 36.4711 26.6149 37.3826 26.6197C39.0244 26.6323 40.1464 27.7563 40.1568 29.4012C40.1652 30.6276 40.1307 31.854 40.1662 33.0793C40.2017 34.3046 39.9721 35.4214 39.1329 36.3972ZM38.9952 33.1617H38.9576C38.9576 32.9405 38.968 32.7171 38.9524 32.4969C38.9485 32.3977 38.9084 32.3034 38.8397 32.2318C37.9264 31.5252 36.914 31.1954 35.7711 31.5294C34.9362 31.7736 34.1127 32.0606 33.2923 32.3508C33.2313 32.3813 33.1782 32.4254 33.1369 32.4796C33.0957 32.5339 33.0674 32.597 33.0543 32.6639C33.0293 33.0413 33.0293 33.4199 33.0543 33.7973C33.1431 35.2585 34.2577 36.4619 35.6386 36.5945C37.1624 36.7417 38.4921 35.8472 38.8501 34.4027C38.9461 33.9956 38.9492 33.5719 38.9952 33.1586V33.1617ZM33.0533 31.1348C33.7766 30.8969 34.4665 30.6756 35.1533 30.4439C36.0133 30.1527 36.8848 30.0807 37.7625 30.3395C38.156 30.4554 38.5328 30.6265 38.9576 30.7873C38.9576 30.3312 38.9576 29.8928 38.9576 29.4545C38.9592 29.3371 38.9508 29.2197 38.9325 29.1038C38.8062 28.3732 38.2479 27.8586 37.5058 27.843C36.5031 27.8221 35.5005 27.8221 34.4978 27.843C34.1336 27.8416 33.7825 27.9792 33.5161 28.2275C33.2497 28.4759 33.0879 28.8165 33.0637 29.18C33.0126 29.8041 33.0533 30.4429 33.0533 31.1348Z" fill="#002C89"/>
<path d="M55.397 35.4026C55.4782 35.4021 55.5588 35.4181 55.6337 35.4497C55.7085 35.4813 55.7762 35.5278 55.8325 35.5864C55.8889 35.645 55.9327 35.7144 55.9613 35.7905C55.99 35.8665 56.0029 35.9476 55.9992 36.0288C56.0036 36.1108 55.9901 36.1927 55.9597 36.2689C55.9294 36.3452 55.8828 36.4139 55.8232 36.4704C55.7637 36.5269 55.6926 36.5697 55.6149 36.596C55.5371 36.6223 55.4546 36.6314 55.373 36.6227C55.2948 36.6253 55.217 36.6116 55.1444 36.5824C55.0718 36.5532 55.0062 36.5092 54.9516 36.4532C54.8969 36.3973 54.8546 36.3305 54.8273 36.2573C54.7999 36.184 54.7881 36.1058 54.7927 36.0278C54.7875 35.9461 54.7995 35.8643 54.8278 35.7875C54.8561 35.7107 54.9 35.6407 54.9569 35.5819C55.0138 35.5231 55.0823 35.4767 55.1581 35.4459C55.2338 35.415 55.3152 35.4002 55.397 35.4026Z" fill="#002C89"/>
<path d="M53.5819 26.6406C53.5833 26.7214 53.5686 26.8016 53.5385 26.8766C53.5085 26.9516 53.4638 27.0198 53.407 27.0773C53.3502 27.1347 53.2825 27.1803 53.2079 27.2112C53.1333 27.2421 53.0532 27.2578 52.9724 27.2574C52.8158 27.2528 52.6671 27.1873 52.558 27.0749C52.4489 26.9624 52.3879 26.8119 52.3879 26.6552C52.3836 26.4987 52.4405 26.3467 52.5466 26.2315C52.6526 26.1163 52.7994 26.047 52.9557 26.0384C53.0364 26.0366 53.1167 26.0507 53.1919 26.0801C53.2672 26.1094 53.3358 26.1533 53.394 26.2093C53.4522 26.2652 53.4988 26.3322 53.531 26.4062C53.5633 26.4802 53.5806 26.5599 53.5819 26.6406Z" fill="#002C89"/>
<path d="M35.362 16.6534C35.3547 16.8106 35.2885 16.9594 35.1765 17.07C35.0645 17.1806 34.915 17.245 34.7577 17.2504C34.6763 17.2497 34.5959 17.2329 34.521 17.201C34.4462 17.1692 34.3784 17.1228 34.3215 17.0646C34.2647 17.0064 34.2199 16.9375 34.1898 16.8619C34.1597 16.7863 34.1448 16.7055 34.1461 16.6242C34.155 16.466 34.2255 16.3176 34.3426 16.2109C34.4597 16.1041 34.614 16.0475 34.7723 16.0533C34.929 16.0581 35.0777 16.1232 35.1876 16.235C35.2974 16.3468 35.3599 16.4967 35.362 16.6534Z" fill="#002C89"/>
<path d="M40.2138 16.9539C40.2064 17.11 40.141 17.2576 40.0303 17.3679C39.9197 17.4781 39.7718 17.543 39.6158 17.5499C39.4526 17.5472 39.2969 17.4809 39.1819 17.3651C39.0669 17.2493 39.0016 17.0931 39 16.9299C39.0063 16.7734 39.0717 16.625 39.1831 16.5148C39.2945 16.4046 39.4435 16.3407 39.6001 16.3361C39.7633 16.3372 39.9194 16.4027 40.0343 16.5185C40.1493 16.6343 40.2138 16.7908 40.2138 16.9539Z" fill="#002C89"/>
<path d="M27.7398 17.8652C27.8963 17.8684 28.0454 17.9324 28.1554 18.0437C28.2655 18.1549 28.3279 18.3046 28.3295 18.4611C28.3275 18.542 28.3096 18.6216 28.2767 18.6955C28.2439 18.7694 28.1968 18.836 28.1381 18.8917C28.0795 18.9473 28.0104 18.9909 27.9349 19.0198C27.8594 19.0487 27.7789 19.0624 27.6981 19.0602C27.5416 19.0572 27.3924 18.9933 27.2822 18.882C27.1721 18.7707 27.1097 18.6208 27.1084 18.4643C27.113 18.3012 27.1821 18.1466 27.3004 18.0343C27.4188 17.9221 27.5768 17.8612 27.7398 17.8652Z" fill="#002C89"/>
<path d="M17.9383 29.5078C17.7803 29.5011 17.631 29.4338 17.5214 29.3199C17.4118 29.206 17.3503 29.0542 17.3496 28.8962C17.3561 28.7387 17.4216 28.5895 17.5333 28.4782C17.6449 28.367 17.7943 28.3019 17.9518 28.296C18.1156 28.2985 18.2717 28.3658 18.386 28.4832C18.5002 28.6006 18.5633 28.7585 18.5614 28.9222C18.551 29.0806 18.481 29.2292 18.3653 29.3379C18.2496 29.4466 18.097 29.5073 17.9383 29.5078Z" fill="#002C89"/>
<path d="M42.0042 53.9233C42.1624 53.9246 42.3138 53.9883 42.4255 54.1004C42.5373 54.2125 42.6004 54.3641 42.6012 54.5224C42.6022 54.6424 42.5674 54.76 42.5013 54.8602C42.4352 54.9605 42.3408 55.0387 42.23 55.085C42.1193 55.1314 41.9972 55.1436 41.8795 55.1203C41.7617 55.097 41.6536 55.0391 41.5688 54.9541C41.4841 54.8691 41.4266 54.7607 41.4037 54.6429C41.3808 54.525 41.3935 54.403 41.4402 54.2924C41.4869 54.1818 41.5655 54.0877 41.6659 54.0219C41.7664 53.9562 41.8841 53.9218 42.0042 53.9233Z" fill="#002C89"/>
<path d="M32.3863 55.7414C32.265 55.7462 32.145 55.7145 32.0419 55.6505C31.9387 55.5864 31.8572 55.4929 31.8077 55.3821C31.7582 55.2712 31.743 55.1481 31.7642 55.0285C31.7854 54.909 31.8419 54.7985 31.9264 54.7114C32.011 54.6242 32.1197 54.5645 32.2386 54.5397C32.3574 54.515 32.481 54.5264 32.5933 54.5726C32.7056 54.6187 32.8014 54.6975 32.8685 54.7987C32.9357 54.8998 32.9709 55.0188 32.9698 55.1402C32.9701 55.2967 32.9093 55.4471 32.8003 55.5594C32.6913 55.6717 32.5427 55.737 32.3863 55.7414Z" fill="#002C89"/>
<path d="M54.0244 42.6C54.1025 42.5971 54.1805 42.6096 54.2538 42.6369C54.3271 42.6642 54.3943 42.7057 54.4515 42.7591C54.5087 42.8124 54.5549 42.8765 54.5872 42.9478C54.6196 43.019 54.6376 43.0959 54.6401 43.1741C54.647 43.3322 54.5912 43.4866 54.4849 43.6038C54.3786 43.7211 54.2304 43.7916 54.0724 43.8003C53.991 43.8042 53.9097 43.7918 53.8332 43.7638C53.7568 43.7358 53.6867 43.6927 53.6272 43.6371C53.5676 43.5816 53.5198 43.5147 53.4866 43.4403C53.4534 43.366 53.4353 43.2858 53.4336 43.2043C53.433 43.0462 53.4947 42.8942 53.6052 42.7812C53.7157 42.6681 53.8663 42.603 54.0244 42.6Z" fill="#002C89"/>
<path d="M54.0402 29.4649C53.9594 29.4656 53.8793 29.4503 53.8045 29.4199C53.7297 29.3894 53.6617 29.3445 53.6043 29.2876C53.547 29.2308 53.5014 29.1631 53.4704 29.0886C53.4393 29.014 53.4233 28.9341 53.4233 28.8533C53.4245 28.6967 53.4859 28.5465 53.5947 28.4339C53.7034 28.3212 53.8513 28.2546 54.0078 28.248C54.0888 28.2471 54.1691 28.2624 54.2441 28.293C54.319 28.3236 54.3871 28.3689 54.4444 28.4261C54.5016 28.4834 54.5469 28.5515 54.5775 28.6265C54.6081 28.7014 54.6234 28.7817 54.6226 28.8627C54.6232 29.0192 54.5626 29.1698 54.4538 29.2823C54.345 29.3947 54.1966 29.4603 54.0402 29.4649Z" fill="#002C89"/>
<path d="M17.221 41.4968C17.0631 41.4963 16.9117 41.4342 16.799 41.3236C16.6863 41.2131 16.6212 41.0629 16.6177 40.9051C16.6143 40.8236 16.6275 40.7423 16.6565 40.6661C16.6855 40.5899 16.7298 40.5204 16.7865 40.4618C16.8432 40.4032 16.9113 40.3568 16.9865 40.3253C17.0617 40.2939 17.1426 40.2781 17.2241 40.2788C17.3816 40.284 17.5309 40.3507 17.6397 40.4647C17.7486 40.5787 17.8085 40.7308 17.8065 40.8884C17.809 41.0465 17.7489 41.1993 17.6392 41.3133C17.5295 41.4273 17.3791 41.4933 17.221 41.4968Z" fill="#002C89"/>
<path d="M17.3462 33.6397C17.3432 33.7974 17.2786 33.9476 17.1663 34.0582C17.0539 34.1688 16.9027 34.231 16.745 34.2315C16.5871 34.2264 16.4373 34.1602 16.3271 34.0469C16.217 33.9337 16.155 33.7821 16.1543 33.6241C16.1548 33.5428 16.1715 33.4624 16.2034 33.3876C16.2353 33.3128 16.2817 33.245 16.3399 33.1883C16.3982 33.1316 16.4672 33.0871 16.5428 33.0572C16.6184 33.0274 16.6992 33.0129 16.7805 33.0145C16.8588 33.0181 16.9356 33.0372 17.0065 33.0706C17.0774 33.1041 17.141 33.1512 17.1936 33.2093C17.2461 33.2674 17.2867 33.3354 17.3129 33.4093C17.3391 33.4831 17.3504 33.5615 17.3462 33.6397Z" fill="#002C89"/>
<path d="M40.2361 55.1684C40.2233 55.3228 40.1511 55.4663 40.0347 55.5686C39.9183 55.6709 39.7668 55.7241 39.612 55.7171C39.4572 55.7101 39.3111 55.6433 39.2045 55.5309C39.0978 55.4185 39.0389 55.2691 39.0401 55.1141C39.0407 55.0335 39.0575 54.9539 39.0896 54.88C39.1217 54.8061 39.1684 54.7394 39.2269 54.684C39.2853 54.6285 39.3544 54.5854 39.4299 54.5573C39.5054 54.5291 39.5858 54.5165 39.6663 54.5201C39.7468 54.5238 39.8257 54.5437 39.8984 54.5785C39.971 54.6134 40.0359 54.6626 40.0891 54.7231C40.1423 54.7836 40.1827 54.8542 40.208 54.9307C40.2333 55.0073 40.2428 55.0881 40.2361 55.1684Z" fill="#002C89"/>
<path d="M32.3613 17.5583C32.2036 17.5588 32.0514 17.4998 31.9353 17.3929C31.8192 17.2861 31.7477 17.1394 31.7351 16.9822C31.7329 16.9011 31.7468 16.8204 31.7762 16.7448C31.8056 16.6692 31.8498 16.6002 31.9061 16.5418C31.9625 16.4835 32.03 16.437 32.1045 16.4051C32.1791 16.3732 32.2593 16.3565 32.3405 16.356C32.498 16.3583 32.6487 16.4211 32.7612 16.5315C32.8737 16.6419 32.9394 16.7913 32.9448 16.9488C32.9424 17.1053 32.8809 17.2551 32.7727 17.3681C32.6645 17.4812 32.5175 17.5491 32.3613 17.5583Z" fill="#002C89"/>
<path d="M44.2219 17.839C44.3797 17.8359 44.5324 17.8952 44.6468 18.0041C44.7611 18.1129 44.8278 18.2625 44.8325 18.4203C44.8359 18.5017 44.8227 18.5829 44.7938 18.6591C44.7648 18.7352 44.7207 18.8047 44.6641 18.8632C44.6075 18.9218 44.5395 18.9682 44.4644 18.9998C44.3893 19.0313 44.3086 19.0472 44.2271 19.0466C44.0695 19.0433 43.9195 18.9782 43.8094 18.8654C43.6993 18.7525 43.6379 18.6009 43.6385 18.4433C43.636 18.365 43.6492 18.287 43.6773 18.2139C43.7055 18.1409 43.7481 18.0742 43.8025 18.0178C43.8569 17.9615 43.922 17.9166 43.9941 17.8859C44.0661 17.8552 44.1436 17.8392 44.2219 17.839Z" fill="#002C89"/>
<path d="M17.9495 42.6084C18.0304 42.6062 18.111 42.6201 18.1864 42.6493C18.2619 42.6786 18.3308 42.7226 18.3891 42.7787C18.4474 42.8349 18.4939 42.9021 18.526 42.9764C18.558 43.0507 18.5749 43.1307 18.5757 43.2116C18.5741 43.368 18.5118 43.5175 18.402 43.6287C18.2921 43.74 18.1433 43.8041 17.9871 43.8076C17.9059 43.8107 17.825 43.7974 17.7491 43.7684C17.6733 43.7395 17.604 43.6956 17.5456 43.6392C17.4871 43.5829 17.4406 43.5154 17.4088 43.4406C17.3771 43.3659 17.3608 43.2855 17.3608 43.2043C17.3614 43.0477 17.4233 42.8975 17.5334 42.7861C17.6435 42.6747 17.7929 42.6108 17.9495 42.6084Z" fill="#002C89"/>
<path d="M29.991 18.1688C29.833 18.1673 29.6814 18.1061 29.5666 17.9975C29.4518 17.8889 29.3823 17.7409 29.3721 17.5833C29.372 17.419 29.4366 17.2612 29.5518 17.1441C29.667 17.027 29.8236 16.9598 29.9878 16.957C30.1458 16.9633 30.2956 17.029 30.4071 17.1411C30.5186 17.2532 30.5836 17.4033 30.589 17.5613C30.5825 17.7188 30.5177 17.8682 30.4072 17.9804C30.2967 18.0927 30.1483 18.1598 29.991 18.1688Z" fill="#002C89"/>
<path d="M30.6117 54.5454C30.6093 54.7031 30.5448 54.8535 30.4323 54.964C30.3198 55.0746 30.1683 55.1364 30.0105 55.1361C29.9293 55.1337 29.8493 55.1151 29.7752 55.0815C29.7012 55.0478 29.6346 54.9998 29.5793 54.9402C29.524 54.8805 29.4812 54.8104 29.4532 54.7341C29.4253 54.6577 29.4129 54.5765 29.4167 54.4953C29.4186 54.417 29.4364 54.34 29.4688 54.2688C29.5013 54.1976 29.5479 54.1337 29.6057 54.0809C29.6635 54.0282 29.7314 53.9877 29.8053 53.9618C29.8792 53.936 29.9575 53.9254 30.0356 53.9306C30.1138 53.933 30.1908 53.9509 30.2621 53.9831C30.3334 54.0153 30.3977 54.0613 30.4512 54.1184C30.5048 54.1755 30.5465 54.2426 30.574 54.3159C30.6015 54.3892 30.6144 54.4671 30.6117 54.5454Z" fill="#002C89"/>
<path d="M55.8438 38.4649C55.8479 38.6233 55.7903 38.7771 55.6833 38.894C55.5762 39.0108 55.428 39.0815 55.2698 39.0911C55.1123 39.0952 54.9595 39.0377 54.8438 38.9309C54.728 38.8241 54.6585 38.6764 54.6498 38.5192C54.6443 38.4379 54.6554 38.3564 54.6824 38.2796C54.7094 38.2028 54.7518 38.1323 54.807 38.0724C54.8622 38.0125 54.929 37.9645 55.0034 37.9313C55.0777 37.8982 55.1581 37.8805 55.2395 37.8794C55.3967 37.8788 55.548 37.9397 55.6609 38.0491C55.7738 38.1585 55.8395 38.3078 55.8438 38.4649Z" fill="#002C89"/>
<path d="M17.2026 31.8248C17.1246 31.8262 17.047 31.8119 16.9746 31.7828C16.9022 31.7536 16.8363 31.7102 16.781 31.6551C16.7257 31.5999 16.6821 31.5343 16.6527 31.462C16.6232 31.3896 16.6087 31.3121 16.6098 31.2341C16.6069 31.1561 16.6196 31.0783 16.6472 31.0054C16.6748 30.9324 16.7167 30.8657 16.7705 30.8092C16.8243 30.7526 16.8888 30.7075 16.9604 30.6763C17.0319 30.6451 17.1089 30.6286 17.187 30.6277C17.2682 30.624 17.3493 30.6372 17.4251 30.6665C17.501 30.6958 17.5699 30.7405 17.6276 30.7978C17.6853 30.8551 17.7304 30.9237 17.7602 30.9993C17.79 31.075 17.8038 31.156 17.8007 31.2372C17.8004 31.3152 17.7847 31.3923 17.7544 31.4642C17.7241 31.536 17.6799 31.6012 17.6243 31.6558C17.5686 31.7105 17.5027 31.7535 17.4304 31.7825C17.358 31.8115 17.2806 31.8259 17.2026 31.8248Z" fill="#002C89"/>
<path d="M54.7895 40.2684C54.9472 40.2693 55.0982 40.3323 55.2096 40.444C55.321 40.5556 55.3839 40.7067 55.3844 40.8644C55.3875 40.9426 55.375 41.0207 55.3478 41.0942C55.3206 41.1676 55.2791 41.2349 55.2257 41.2922C55.1724 41.3496 55.1082 41.3958 55.0369 41.4282C54.9656 41.4607 54.8887 41.4787 54.8104 41.4812C54.7289 41.4837 54.6479 41.4695 54.5721 41.4394C54.4964 41.4094 54.4275 41.3643 54.3699 41.3067C54.3122 41.2491 54.2669 41.1804 54.2368 41.1047C54.2066 41.029 54.1923 40.9479 54.1946 40.8665C54.1954 40.7087 54.2582 40.5575 54.3695 40.4456C54.4808 40.3337 54.6317 40.2701 54.7895 40.2684Z" fill="#002C89"/>
<path d="M54.7955 31.7735C54.7174 31.7761 54.6395 31.7629 54.5665 31.735C54.4936 31.707 54.4269 31.6648 54.3704 31.6108C54.3139 31.5567 54.2688 31.492 54.2377 31.4203C54.2066 31.3486 54.19 31.2714 54.1891 31.1932C54.1854 31.1122 54.1982 31.0313 54.2268 30.9554C54.2553 30.8795 54.2989 30.8101 54.3551 30.7516C54.4112 30.693 54.4786 30.6465 54.5532 30.6148C54.6278 30.583 54.7081 30.5668 54.7892 30.567C54.9468 30.5703 55.0967 30.6352 55.207 30.7478C55.3172 30.8604 55.379 31.0117 55.3789 31.1692C55.3812 31.3266 55.3211 31.4784 55.2118 31.5917C55.1025 31.7049 54.9528 31.7703 54.7955 31.7735Z" fill="#002C89"/>
<path d="M19.6017 45.4003C19.6058 45.4787 19.594 45.5572 19.5671 45.6311C19.5401 45.7049 19.4985 45.7725 19.4449 45.8299C19.3912 45.8873 19.3265 45.9332 19.2546 45.9651C19.1827 45.9969 19.1052 46.0139 19.0266 46.015C18.9486 46.0189 18.8705 46.0073 18.797 45.9808C18.7235 45.9543 18.656 45.9134 18.5984 45.8606C18.5408 45.8078 18.4943 45.744 18.4616 45.6731C18.4288 45.6021 18.4105 45.5253 18.4077 45.4472C18.402 45.366 18.413 45.2845 18.44 45.2076C18.467 45.1308 18.5094 45.0603 18.5646 45.0005C18.6198 44.9407 18.6867 44.8928 18.7612 44.8597C18.8356 44.8267 18.916 44.8093 18.9974 44.8085C19.1558 44.8076 19.3081 44.8693 19.4212 44.9801C19.5344 45.0909 19.5993 45.2419 19.6017 45.4003Z" fill="#002C89"/>
<path d="M44.268 53.0256C44.426 53.0265 44.5773 53.0897 44.6889 53.2015C44.8005 53.3133 44.8634 53.4647 44.864 53.6226C44.8664 53.7039 44.8524 53.7848 44.8228 53.8604C44.7932 53.9361 44.7486 54.005 44.6917 54.0631C44.6348 54.1211 44.5667 54.167 44.4916 54.1981C44.4166 54.2292 44.336 54.2448 44.2547 54.2439C44.1735 54.2431 44.0932 54.2258 44.0188 54.1932C43.9443 54.1606 43.8773 54.1132 43.8216 54.054C43.7659 53.9948 43.7228 53.925 43.6947 53.8487C43.6667 53.7724 43.6544 53.6913 43.6585 53.6101C43.6642 53.4526 43.731 53.3035 43.8448 53.1943C43.9586 53.0852 44.1104 53.0247 44.268 53.0256Z" fill="#002C89"/>
<path d="M53.5924 45.3909C53.5961 45.4688 53.5843 45.5467 53.5574 45.6199C53.5306 45.6932 53.4893 45.7603 53.4361 45.8173C53.3829 45.8743 53.3188 45.9201 53.2475 45.9519C53.1763 45.9837 53.0994 46.0009 53.0214 46.0025C52.9403 46.0061 52.8593 45.993 52.7835 45.964C52.7076 45.9351 52.6384 45.8909 52.5803 45.8341C52.5222 45.7774 52.4764 45.7093 52.4456 45.6342C52.4149 45.559 52.3998 45.4783 52.4015 45.3972C52.4026 45.24 52.4655 45.0896 52.5766 44.9784C52.6878 44.8673 52.8382 44.8044 52.9954 44.8033C53.0733 44.8022 53.1506 44.8166 53.223 44.8456C53.2953 44.8746 53.3611 44.9177 53.4166 44.9723C53.4722 45.027 53.5163 45.0922 53.5465 45.164C53.5766 45.2358 53.5922 45.313 53.5924 45.3909Z" fill="#002C89"/>
<path d="M41.9479 18.1375C41.8698 18.1373 41.7925 18.1213 41.7207 18.0903C41.649 18.0594 41.5842 18.0142 41.5304 17.9575C41.4767 17.9008 41.435 17.8338 41.4079 17.7605C41.3808 17.6872 41.3689 17.6092 41.3728 17.5311C41.3732 17.4532 41.389 17.3761 41.4192 17.3042C41.4494 17.2324 41.4936 17.1672 41.549 17.1125C41.6045 17.0577 41.6702 17.0144 41.7424 16.985C41.8146 16.9557 41.8919 16.9409 41.9698 16.9414C42.0511 16.942 42.1313 16.9591 42.2058 16.9915C42.2803 17.024 42.3475 17.0712 42.4033 17.1303C42.4591 17.1893 42.5023 17.2591 42.5304 17.3354C42.5585 17.4116 42.5709 17.4928 42.5668 17.5739C42.5639 17.6518 42.5455 17.7283 42.5126 17.799C42.4798 17.8697 42.4332 17.9331 42.3756 17.9856C42.318 18.038 42.2505 18.0785 42.177 18.1046C42.1036 18.1307 42.0257 18.1419 41.9479 18.1375Z" fill="#002C89"/>
<path d="M55.2518 34.1668C55.1737 34.1688 55.096 34.1554 55.0231 34.1272C54.9502 34.0991 54.8837 34.0567 54.8273 34.0027C54.7709 33.9486 54.7258 33.8839 54.6945 33.8123C54.6633 33.7406 54.6466 33.6635 54.6454 33.5854C54.64 33.5074 54.6505 33.4292 54.6764 33.3554C54.7022 33.2816 54.7427 33.2139 54.7955 33.1563C54.8483 33.0987 54.9123 33.0524 54.9836 33.0203C55.0549 32.9882 55.1319 32.971 55.2101 32.9696C55.2912 32.9649 55.3725 32.9769 55.4489 33.0047C55.5252 33.0325 55.5951 33.0757 55.6543 33.1315C55.7134 33.1873 55.7605 33.2545 55.7927 33.3292C55.8249 33.4038 55.8415 33.4843 55.8415 33.5656C55.8423 33.7233 55.7808 33.875 55.6704 33.9876C55.56 34.1002 55.4095 34.1646 55.2518 34.1668Z" fill="#002C89"/>
<path d="M27.7498 54.227C27.6716 54.2292 27.5938 54.2157 27.5209 54.1873C27.4481 54.1588 27.3817 54.116 27.3257 54.0614C27.2697 54.0068 27.2253 53.9415 27.195 53.8693C27.1648 53.7972 27.1494 53.7197 27.1497 53.6415C27.1449 53.484 27.2027 53.3311 27.3106 53.2163C27.4184 53.1014 27.5673 53.034 27.7248 53.0288C27.806 53.0264 27.8869 53.0405 27.9625 53.0701C28.0382 53.0997 28.1071 53.1444 28.1651 53.2013C28.2231 53.2582 28.269 53.3263 28.3001 53.4014C28.3311 53.4765 28.3467 53.5571 28.3458 53.6384C28.3459 53.7163 28.3306 53.7935 28.3006 53.8655C28.2706 53.9375 28.2266 54.0027 28.1711 54.0575C28.1156 54.1123 28.0498 54.1555 27.9775 54.1846C27.9052 54.2137 27.8278 54.2281 27.7498 54.227Z" fill="#002C89"/>
<path d="M37.8211 55.4471C37.8214 55.5253 37.806 55.6027 37.7757 55.6748C37.7455 55.7469 37.701 55.8121 37.645 55.8667C37.589 55.9212 37.5226 55.9639 37.4497 55.9922C37.3769 56.0206 37.2991 56.034 37.2209 56.0316C37.1429 56.0323 37.0654 56.0175 36.9931 55.9881C36.9208 55.9588 36.855 55.9154 36.7995 55.8605C36.744 55.8056 36.6999 55.7402 36.6698 55.6682C36.6396 55.5962 36.6241 55.5189 36.6239 55.4408C36.621 55.3601 36.6344 55.2797 36.6634 55.2043C36.6924 55.1289 36.7363 55.0601 36.7925 55.0021C36.8487 54.9442 36.9161 54.8981 36.9905 54.8669C37.065 54.8356 37.145 54.8197 37.2257 54.8201C37.3065 54.8205 37.3864 54.8372 37.4605 54.8693C37.5346 54.9014 37.6015 54.9481 37.6571 55.0067C37.7127 55.0652 37.7559 55.1344 37.7841 55.2101C37.8122 55.2858 37.8248 55.3664 37.8211 55.4471Z" fill="#002C89"/>
<path d="M17.3567 38.4784C17.3605 38.5564 17.3487 38.6344 17.322 38.7078C17.2954 38.7812 17.2544 38.8485 17.2015 38.9059C17.1485 38.9634 17.0847 39.0097 17.0137 39.0422C16.9427 39.0746 16.8659 39.0927 16.7879 39.0952C16.7066 39.0982 16.6255 39.0847 16.5496 39.0556C16.4737 39.0265 16.4044 38.9823 16.3459 38.9258C16.2875 38.8693 16.241 38.8015 16.2093 38.7266C16.1776 38.6517 16.1614 38.5712 16.1616 38.4899C16.1612 38.4119 16.1763 38.3345 16.2059 38.2624C16.2355 38.1902 16.2792 38.1246 16.3343 38.0694C16.3894 38.0142 16.4549 37.9704 16.527 37.9407C16.5991 37.9109 16.6764 37.8957 16.7545 37.896C16.8327 37.8928 16.9109 37.9054 16.9841 37.9333C17.0573 37.9612 17.1241 38.0036 17.1804 38.0581C17.2368 38.1125 17.2814 38.1779 17.3117 38.2501C17.342 38.3224 17.3573 38.4001 17.3567 38.4784Z" fill="#002C89"/>
<path d="M19.5925 26.7085C19.5878 26.8659 19.5213 27.0152 19.4075 27.124C19.2936 27.2328 19.1414 27.2924 18.984 27.2898C18.9058 27.2916 18.8281 27.2774 18.7555 27.2482C18.683 27.2189 18.6172 27.1753 18.562 27.1198C18.5069 27.0644 18.4636 26.9983 18.4347 26.9256C18.4059 26.853 18.3921 26.7752 18.3943 26.697C18.3936 26.6157 18.4095 26.5351 18.4411 26.4601C18.4726 26.3852 18.5191 26.3175 18.5777 26.2611C18.6364 26.2047 18.7059 26.1609 18.782 26.1323C18.8581 26.1037 18.9393 26.0909 19.0205 26.0948C19.1777 26.1005 19.3261 26.1683 19.4334 26.2834C19.5406 26.3984 19.5978 26.5513 19.5925 26.7085Z" fill="#002C89"/>
</svg>
