<svg width="2412" height="2156" viewBox="0 0 2412 2156" fill="none" xmlns="http://www.w3.org/2000/svg">
<path d="M1152.08 0.640137H179.271C147.26 0.640137 121.311 26.5897 121.311 58.6001V1074.29C121.311 1106.3 147.26 1132.25 179.271 1132.25H1152.08C1184.09 1132.25 1210.04 1106.3 1210.04 1074.29V58.6001C1210.04 26.5897 1184.09 0.640137 1152.08 0.640137Z" fill="#B0D8FF"/>
<path d="M1136.42 19.9702H175.741C145.68 19.9702 121.311 44.3393 121.311 74.4002V1077.81C121.311 1107.87 145.68 1132.24 175.741 1132.24H1136.42C1166.48 1132.24 1190.85 1107.87 1190.85 1077.81V74.4002C1190.85 44.3393 1166.48 19.9702 1136.42 19.9702Z" fill="url(#paint0_linear_3222_885)"/>
<path d="M1132.69 67.4102H186.43C176.064 67.4102 167.66 75.8138 167.66 86.1801V256.95C167.66 267.317 176.064 275.72 186.43 275.72H1132.69C1143.06 275.72 1151.46 267.317 1151.46 256.95V86.1801C1151.46 75.8138 1143.06 67.4102 1132.69 67.4102Z" fill="#D5E1F7"/>
<path d="M1127.24 61.9702H180.981C170.615 61.9702 162.211 70.3738 162.211 80.7402V251.51C162.211 261.877 170.615 270.28 180.981 270.28H1127.24C1137.61 270.28 1146.01 261.877 1146.01 251.51V80.7402C1146.01 70.3738 1137.61 61.9702 1127.24 61.9702Z" fill="white"/>
<path d="M1133.17 888.74H186.911C176.544 888.74 168.141 897.144 168.141 907.51V1078.28C168.141 1088.65 176.544 1097.05 186.911 1097.05H1133.17C1143.54 1097.05 1151.94 1088.65 1151.94 1078.28V907.51C1151.94 897.144 1143.54 888.74 1133.17 888.74Z" fill="#D5E1F7"/>
<path d="M1127.24 881.22H180.981C170.615 881.22 162.211 889.624 162.211 899.99V1070.76C162.211 1081.13 170.615 1089.53 180.981 1089.53H1127.24C1137.61 1089.53 1146.01 1081.13 1146.01 1070.76V899.99C1146.01 889.624 1137.61 881.22 1127.24 881.22Z" fill="white"/>
<path d="M491.24 910.23H210.64C202.66 910.23 196.19 916.7 196.19 924.68C196.19 932.661 202.66 939.13 210.64 939.13H491.24C499.221 939.13 505.69 932.661 505.69 924.68C505.69 916.7 499.221 910.23 491.24 910.23Z" fill="#D5E1F7"/>
<path d="M1109.45 978.45H210.64C202.66 978.45 196.19 984.92 196.19 992.9C196.19 1000.88 202.66 1007.35 210.64 1007.35H1109.45C1117.43 1007.35 1123.9 1000.88 1123.9 992.9C1123.9 984.92 1117.43 978.45 1109.45 978.45Z" fill="#D5E1F7"/>
<path d="M1109.45 1031.62H210.64C202.66 1031.62 196.19 1038.09 196.19 1046.07C196.19 1054.05 202.66 1060.52 210.64 1060.52H1109.45C1117.43 1060.52 1123.9 1054.05 1123.9 1046.07C1123.9 1038.09 1117.43 1031.62 1109.45 1031.62Z" fill="#EBF5FF"/>
<path d="M375.971 842.05L375.971 324.49C375.971 316.775 369.716 310.52 362.001 310.52H181.631C173.915 310.52 167.661 316.775 167.661 324.49L167.661 842.05C167.661 849.765 173.915 856.02 181.631 856.02H362.001C369.716 856.02 375.971 849.765 375.971 842.05Z" fill="#D5E1F7"/>
<path d="M371.761 834.86L371.761 317.3C371.761 309.585 365.506 303.33 357.791 303.33H177.421C169.705 303.33 163.451 309.585 163.451 317.3L163.451 834.86C163.451 842.576 169.705 848.83 177.421 848.83H357.791C365.506 848.83 371.761 842.576 371.761 834.86Z" fill="white"/>
<path d="M1154.14 829.82V336.74C1154.14 322.265 1142.41 310.53 1127.93 310.53L447.761 310.53C433.285 310.53 421.551 322.265 421.551 336.74V829.82C421.551 844.295 433.285 856.03 447.761 856.03H1127.93C1142.41 856.03 1154.14 844.295 1154.14 829.82Z" fill="#D5E1F7"/>
<path d="M1146.01 822.62V329.54C1146.01 315.065 1134.28 303.33 1119.8 303.33L439.631 303.33C425.155 303.33 413.421 315.065 413.421 329.54V822.62C413.421 837.096 425.155 848.83 439.631 848.83H1119.8C1134.28 848.83 1146.01 837.096 1146.01 822.62Z" fill="white"/>
<path d="M652.07 326.04H455.39C447.901 326.04 441.83 332.111 441.83 339.6V341.38C441.83 348.869 447.901 354.94 455.39 354.94H652.07C659.559 354.94 665.63 348.869 665.63 341.38V339.6C665.63 332.111 659.559 326.04 652.07 326.04Z" fill="#00D967"/>
<path d="M1098.69 394.26H455.79C448.08 394.26 441.83 400.51 441.83 408.22V409.2C441.83 416.91 448.08 423.16 455.79 423.16H1098.69C1106.4 423.16 1112.65 416.91 1112.65 409.2V408.22C1112.65 400.51 1106.4 394.26 1098.69 394.26Z" fill="#D5E1F7"/>
<path d="M1098.69 447.44H455.79C448.08 447.44 441.83 453.69 441.83 461.4V462.38C441.83 470.09 448.08 476.34 455.79 476.34H1098.69C1106.4 476.34 1112.65 470.09 1112.65 462.38V461.4C1112.65 453.69 1106.4 447.44 1098.69 447.44Z" fill="#EBF5FF"/>
<path d="M652.07 500.6H455.39C447.901 500.6 441.83 506.671 441.83 514.16V515.94C441.83 523.429 447.901 529.5 455.39 529.5H652.07C659.559 529.5 665.63 523.429 665.63 515.94V514.16C665.63 506.671 659.559 500.6 652.07 500.6Z" fill="#00D967"/>
<path d="M1098.69 568.82H455.79C448.08 568.82 441.83 575.07 441.83 582.78V583.76C441.83 591.47 448.08 597.72 455.79 597.72H1098.69C1106.4 597.72 1112.65 591.47 1112.65 583.76V582.78C1112.65 575.07 1106.4 568.82 1098.69 568.82Z" fill="#D5E1F7"/>
<path d="M1098.69 622H455.79C448.08 622 441.83 628.25 441.83 635.96V636.94C441.83 644.65 448.08 650.9 455.79 650.9H1098.69C1106.4 650.9 1112.65 644.65 1112.65 636.94V635.96C1112.65 628.25 1106.4 622 1098.69 622Z" fill="#EBF5FF"/>
<path d="M652.07 675.17H455.39C447.901 675.17 441.83 681.241 441.83 688.73V690.51C441.83 697.999 447.901 704.07 455.39 704.07H652.07C659.559 704.07 665.63 697.999 665.63 690.51V688.73C665.63 681.241 659.559 675.17 652.07 675.17Z" fill="#00D967"/>
<path d="M1098.69 743.39H455.79C448.08 743.39 441.83 749.64 441.83 757.35V758.33C441.83 766.04 448.08 772.29 455.79 772.29H1098.69C1106.4 772.29 1112.65 766.04 1112.65 758.33V757.35C1112.65 749.64 1106.4 743.39 1098.69 743.39Z" fill="#D5E1F7"/>
<path d="M1098.69 796.57H455.79C448.08 796.57 441.83 802.82 441.83 810.53V811.51C441.83 819.22 448.08 825.47 455.79 825.47H1098.69C1106.4 825.47 1112.65 819.22 1112.65 811.51V810.53C1112.65 802.82 1106.4 796.57 1098.69 796.57Z" fill="#EBF5FF"/>
<path d="M336.511 326.04H196.871C185.875 326.04 176.961 334.954 176.961 345.95V472.35C176.961 483.346 185.875 492.26 196.871 492.26H336.511C347.507 492.26 356.421 483.346 356.421 472.35V345.95C356.421 334.954 347.507 326.04 336.511 326.04Z" fill="#DAEBFF"/>
<path d="M336.511 522.69H196.871C185.875 522.69 176.961 531.604 176.961 542.6V669C176.961 679.996 185.875 688.91 196.871 688.91H336.511C347.507 688.91 356.421 679.996 356.421 669V542.6C356.421 531.604 347.507 522.69 336.511 522.69Z" fill="#DAEBFF"/>
<path d="M619.651 188.64H443.551C432.638 188.64 423.791 197.487 423.791 208.4V230.25C423.791 241.163 432.638 250.01 443.551 250.01H619.651C630.564 250.01 639.411 241.163 639.411 230.25V208.4C639.411 197.487 630.564 188.64 619.651 188.64Z" fill="#DAEBFF"/>
<path d="M379.55 188.64H203.45C192.537 188.64 183.69 197.487 183.69 208.4V230.25C183.69 241.163 192.537 250.01 203.45 250.01H379.55C390.464 250.01 399.31 241.163 399.31 230.25V208.4C399.31 197.487 390.464 188.64 379.55 188.64Z" fill="#DAEBFF"/>
<path d="M861.89 188.64H685.79C674.877 188.64 666.03 197.487 666.03 208.4V230.25C666.03 241.163 674.877 250.01 685.79 250.01H861.89C872.803 250.01 881.65 241.163 881.65 230.25V208.4C881.65 197.487 872.803 188.64 861.89 188.64Z" fill="#DAEBFF"/>
<path d="M1104.14 188.64H928.04C917.127 188.64 908.28 197.487 908.28 208.4V230.25C908.28 241.163 917.127 250.01 928.04 250.01H1104.14C1115.05 250.01 1123.9 241.163 1123.9 230.25V208.4C1123.9 197.487 1115.05 188.64 1104.14 188.64Z" fill="#DAEBFF"/>
<path d="M1102.07 82.3401H199.4C187.344 82.3401 177.57 92.1137 177.57 104.17V145.98C177.57 158.036 187.344 167.81 199.4 167.81H1102.07C1114.13 167.81 1123.9 158.036 1123.9 145.98V104.17C1123.9 92.1137 1114.13 82.3401 1102.07 82.3401Z" fill="#DAEBFF"/>
<path d="M1227.65 2106.03C1387.81 2106.03 1517.65 2071.1 1517.65 2028.01C1517.65 1984.92 1387.81 1949.99 1227.65 1949.99C1067.49 1949.99 937.65 1984.92 937.65 2028.01C937.65 2071.1 1067.49 2106.03 1227.65 2106.03Z" fill="#E2EEFA"/>
<path d="M512.16 1950C588.95 1950 651.2 1930.49 651.2 1906.42C651.2 1882.35 588.95 1862.84 512.16 1862.84C435.37 1862.84 373.12 1882.35 373.12 1906.42C373.12 1930.49 435.37 1950 512.16 1950Z" fill="#E2EEFA"/>
<path d="M1494.36 1994.58C1626.14 1994.58 1732.97 1968.29 1732.97 1935.87C1732.97 1903.45 1626.14 1877.16 1494.36 1877.16C1362.58 1877.16 1255.75 1903.45 1255.75 1935.87C1255.75 1968.29 1362.58 1994.58 1494.36 1994.58Z" fill="#E2EEFA"/>
<path d="M2102.97 2077.98C2162.92 2077.98 2211.52 2062.86 2211.52 2044.2C2211.52 2025.54 2162.92 2010.42 2102.97 2010.42C2043.02 2010.42 1994.42 2025.54 1994.42 2044.2C1994.42 2062.86 2043.02 2077.98 2102.97 2077.98Z" fill="#E2EEFA"/>
<path d="M2411 1710H82V1730H2411V1710Z" fill="#D3E2F9"/>
<path d="M588.65 1726.89C588.65 1726.89 696.41 1721.05 696.53 1699.15C696.63 1682.15 630.71 1696.53 630.71 1696.53C630.71 1696.53 702.81 1675.61 736.14 1658.53C743.46 1654.78 750.92 1650.72 756.04 1644.29C761.16 1637.86 763.38 1628.42 759.24 1621.29C753.62 1611.68 740.16 1610.9 729.11 1612.23C684.73 1617.59 653.53 1641.33 613.58 1661.39C642.83 1646.7 668.84 1627.91 693.21 1606.13C715.63 1586.13 741.71 1567.32 756.65 1540.55C766.01 1523.77 769.72 1498.99 753.15 1485.2C737.08 1471.82 714.05 1478.07 696.4 1484.27C648.99 1500.92 607.4 1533.98 580.14 1576.11C587.176 1556.41 592.656 1536.19 596.53 1515.63C598.09 1507.35 598.66 1497.14 591.82 1492.23C582.94 1485.88 571.09 1494.38 564.19 1502.85C547.431 1523.42 534.751 1547 526.83 1572.32C532.27 1515.75 537.66 1458.07 525.35 1402.59C522.54 1389.92 518.66 1377.13 510.75 1366.84C502.84 1356.55 490.17 1349.12 477.27 1350.53C465.05 1351.86 454.96 1360.53 446.77 1369.7C420.067 1399.58 404.87 1437.98 403.901 1478.04C402.932 1518.1 416.253 1557.2 441.48 1588.33C428.328 1574.53 413.523 1562.42 397.4 1552.25C393.79 1549.96 388.48 1548.01 385.76 1551.31C384.35 1553.01 384.38 1555.45 384.58 1557.65C387.06 1584.55 405.1 1607.1 422.37 1627.87C387.37 1587 332.27 1564.21 278.61 1568.4C272.13 1568.91 264.77 1570.35 261.48 1575.95C259.57 1579.2 259.48 1583.19 259.88 1586.95C262.75 1613.95 286.54 1633.49 309.95 1647.21C329.64 1658.75 350.36 1668.4 371.05 1678.03C359.212 1676.34 347.228 1675.92 335.3 1676.77C332.58 1676.97 329.54 1677.4 327.88 1679.56C324.75 1683.65 329.17 1689.19 333.34 1692.21C363.612 1713.91 400.539 1724.29 437.68 1721.54" fill="#00D967"/>
<path style="mix-blend-mode:multiply" opacity="0.45" d="M711 1525.72C712.32 1524.72 713.63 1526.87 712.35 1527.84C678.01 1553.61 646.501 1582.96 618.35 1615.38C590.05 1648.18 567.47 1684 545.35 1721.1C545.189 1721.36 544.933 1721.55 544.635 1721.64C544.337 1721.72 544.02 1721.68 543.748 1721.53C543.476 1721.39 543.269 1721.14 543.171 1720.85C543.073 1720.56 543.091 1720.24 543.22 1719.96C579.92 1642.96 642.39 1575.34 710.99 1525.72H711ZM555.93 1553.51C536.24 1603.96 524.42 1667.51 528.38 1721.79C528.391 1722.07 528.514 1722.34 528.722 1722.53C528.93 1722.73 529.207 1722.83 529.49 1722.82C529.774 1722.81 530.042 1722.69 530.235 1722.48C530.428 1722.27 530.531 1721.99 530.52 1721.71C531.4 1667.06 539.52 1605.96 558.79 1554.59C559.4 1552.97 556.57 1551.89 555.93 1553.51V1553.51ZM487.7 1442.07C478.42 1534.67 485.9 1633.4 510.7 1723.19C511.11 1724.69 513.25 1723.93 512.95 1722.47C503.53 1675.38 495.02 1628.35 491.1 1580.47C487.33 1534.39 487.71 1488.47 489.32 1442.27C489.32 1441.35 487.78 1441.18 487.68 1442.11L487.7 1442.07ZM404 1580.43C431.82 1619.95 462.64 1693.05 499.17 1724.92C499.474 1725.11 499.835 1725.19 500.19 1725.14C500.544 1725.09 500.87 1724.91 501.109 1724.65C501.348 1724.38 501.486 1724.04 501.497 1723.68C501.508 1723.32 501.392 1722.97 501.17 1722.69C468.17 1686.38 435.8 1618.32 406.17 1579C405.17 1577.65 402.94 1579 403.93 1580.43H404ZM703.77 1641.67C648.6 1666.55 591.77 1695.82 544.97 1734.67C543.52 1735.87 544.97 1738.34 546.6 1737.22C598.07 1703.05 647.89 1669.41 704.49 1643.88C705.86 1643.26 705.16 1640.99 703.77 1641.62V1641.67ZM360.71 1634.85C400.88 1658.85 443.84 1710.07 487.63 1726.85C489.02 1727.38 490.16 1725.45 488.75 1724.76C446.31 1704.01 402.93 1656.22 361.87 1632.76C360.48 1631.97 359.35 1634.13 360.71 1634.94V1634.85Z" fill="url(#paint1_linear_3222_885)"/>
<path d="M646.511 1720.47H411.421V1917.08H646.511V1720.47Z" fill="#B0D8FF"/>
<path d="M646.51 1720.47H600.32V1917.08H646.51V1720.47Z" fill="#DAEBFF"/>
<path d="M2351.01 132.61H1343.73C1315.29 132.61 1292.24 155.663 1292.24 184.1V957.03C1292.24 985.467 1315.29 1008.52 1343.73 1008.52H2351.01C2379.45 1008.52 2402.5 985.467 2402.5 957.03V184.1C2402.5 155.663 2379.45 132.61 2351.01 132.61Z" fill="#B0D8FF"/>
<path d="M2332.21 153.72H1342.65C1314.81 153.72 1292.24 176.29 1292.24 204.13V958.11C1292.24 985.951 1314.81 1008.52 1342.65 1008.52H2332.21C2360.05 1008.52 2382.62 985.951 2382.62 958.11V204.13C2382.62 176.29 2360.05 153.72 2332.21 153.72Z" fill="url(#paint2_linear_3222_885)"/>
<path d="M1604.83 242.05H1482.34C1478.12 242.05 1474.7 238.05 1474.7 233.05C1474.7 228.05 1478.12 224.05 1482.34 224.05H1604.83C1609.05 224.05 1612.47 228.05 1612.47 233.05C1612.47 238 1609.05 242.05 1604.83 242.05Z" fill="#00D967"/>
<path d="M1724.21 322.64H1516.58C1512.36 322.64 1508.94 318.64 1508.94 313.64C1508.94 308.64 1512.36 304.64 1516.58 304.64H1724.21C1728.43 304.64 1731.85 308.64 1731.85 313.64C1731.85 318.61 1728.43 322.64 1724.21 322.64Z" fill="#006DFE"/>
<path d="M1808 322.64H2124.85C2129.07 322.64 2132.49 318.64 2132.49 313.64C2132.49 308.64 2129.07 304.64 2124.85 304.64H1808C1803.78 304.64 1800.36 308.64 1800.36 313.64C1800.32 318.61 1803.74 322.64 1808 322.64Z" fill="#00D967"/>
<path d="M1724.21 403.23H1516.58C1512.36 403.23 1508.94 399.23 1508.94 394.23C1508.94 389.23 1512.36 385.23 1516.58 385.23H1724.21C1728.43 385.23 1731.85 389.23 1731.85 394.23C1731.85 399.2 1728.43 403.23 1724.21 403.23Z" fill="#006DFE"/>
<path d="M1690 483.82H1482.34C1478.12 483.82 1474.7 479.82 1474.7 474.82C1474.7 469.82 1478.12 465.82 1482.34 465.82H1690C1694.22 465.82 1697.64 469.82 1697.64 474.82C1697.62 479.79 1694.2 483.82 1690 483.82Z" fill="#00D967"/>
<path d="M2130.29 483.82H1773.73C1769.51 483.82 1766.09 479.82 1766.09 474.82C1766.09 469.82 1769.51 465.82 1773.73 465.82H2130.29C2134.51 465.82 2137.93 469.82 2137.93 474.82C2137.93 479.79 2134.51 483.82 2130.29 483.82Z" fill="#006DFE"/>
<path d="M1903.74 403.23H1798.81C1794.59 403.23 1791.17 399.23 1791.17 394.23C1791.17 389.23 1794.59 385.23 1798.81 385.23H1903.74C1907.96 385.23 1911.38 389.23 1911.38 394.23C1911.38 399.2 1908 403.23 1903.74 403.23Z" fill="#006DFE"/>
<path d="M2088 403.23H1983C1978.78 403.23 1975.36 399.23 1975.36 394.23C1975.36 389.23 1978.78 385.23 1983 385.23H2088C2092.22 385.23 2095.64 389.23 2095.64 394.23C2095.59 399.2 2092.17 403.23 2088 403.23Z" fill="#006DFE"/>
<path d="M1621.26 564.41H1484.86C1480.64 564.41 1477.22 560.41 1477.22 555.41C1477.22 550.41 1480.64 546.41 1484.86 546.41H1621.26C1625.48 546.41 1628.9 550.41 1628.9 555.41C1628.9 560.38 1625.48 564.41 1621.26 564.41Z" fill="#006DFE"/>
<path d="M1904.14 564.41H1696.5C1692.28 564.41 1688.86 560.41 1688.86 555.41C1688.86 550.41 1692.28 546.41 1696.5 546.41H1904.14C1908.36 546.41 1911.78 550.41 1911.78 555.41C1911.78 560.38 1908.36 564.41 1904.14 564.41Z" fill="#00D967"/>
<path d="M2055.55 564.41H1978C1973.78 564.41 1970.36 560.41 1970.36 555.41C1970.36 550.41 1973.78 546.41 1978 546.41H2055.54C2059.76 546.41 2063.18 550.41 2063.18 555.41C2063.19 560.38 2059.77 564.41 2055.55 564.41Z" fill="#006DFE"/>
<path d="M1749.69 645H1628C1623.78 645 1620.36 641 1620.36 636C1620.36 631 1623.78 627 1628 627H1749.65C1753.87 627 1757.29 631 1757.29 636C1757.33 641 1753.91 645 1749.69 645Z" fill="#006DFE"/>
<path d="M2040.68 645H1833C1828.78 645 1825.36 641 1825.36 636C1825.36 631 1828.78 627 1833 627H2040.64C2044.86 627 2048.28 631 2048.28 636C2048.32 641 2044.9 645 2040.68 645Z" fill="#006DFE"/>
<path d="M1974.12 725.58H1585.05C1580.83 725.58 1577.41 721.58 1577.41 716.58C1577.41 711.58 1580.83 707.58 1585.05 707.58H1974.12C1978.34 707.58 1981.76 711.58 1981.76 716.58C1981.76 721.56 1978.34 725.58 1974.12 725.58Z" fill="#006DFE"/>
<path d="M2265.11 725.58H2030.11C2025.89 725.58 2022.47 721.58 2022.47 716.58C2022.47 711.58 2025.89 707.58 2030.11 707.58H2265.11C2269.33 707.58 2272.75 711.58 2272.75 716.58C2272.75 721.56 2269.33 725.58 2265.11 725.58Z" fill="#006DFE"/>
<path d="M1690 806.17H1482.34C1478.12 806.17 1474.7 802.17 1474.7 797.17C1474.7 792.17 1478.12 788.17 1482.34 788.17H1690C1694.22 788.17 1697.64 792.17 1697.64 797.17C1697.62 802.14 1694.2 806.17 1690 806.17Z" fill="#006DFE"/>
<path d="M1941.24 806.17H1733.61C1729.39 806.17 1725.97 802.17 1725.97 797.17C1725.97 792.17 1729.39 788.17 1733.61 788.17H1941.24C1945.46 788.17 1948.88 792.17 1948.88 797.17C1948.88 802.14 1945.46 806.17 1941.24 806.17Z" fill="#00D967"/>
<path d="M1961.23 886.76H1645.87C1641.65 886.76 1638.23 882.76 1638.23 877.76C1638.23 872.76 1641.65 868.76 1645.87 868.76H1961.23C1965.45 868.76 1968.88 872.76 1968.88 877.76C1968.88 882.73 1965.45 886.76 1961.23 886.76Z" fill="#006DFE"/>
<path d="M1388.49 224.07H1373.21V242.06H1388.49V224.07Z" fill="#006DFE"/>
<path d="M1388.49 304.65H1373.21V322.64H1388.49V304.65Z" fill="#006DFE"/>
<path d="M1388.49 385.24H1373.21V403.23H1388.49V385.24Z" fill="#006DFE"/>
<path d="M1388.49 465.83H1373.21V483.82H1388.49V465.83Z" fill="#006DFE"/>
<path d="M1388.49 546.42H1373.21V564.41H1388.49V546.42Z" fill="#006DFE"/>
<path d="M1388.49 627.01H1373.21V645H1388.49V627.01Z" fill="#006DFE"/>
<path d="M1388.49 667.3H1373.21V685.29H1388.49V667.3Z" fill="#006DFE"/>
<path d="M1388.49 707.6H1373.21V725.59H1388.49V707.6Z" fill="#006DFE"/>
<path d="M1388.49 747.89H1373.21V765.88H1388.49V747.89Z" fill="#006DFE"/>
<path d="M1388.49 788.18H1373.21V806.17H1388.49V788.18Z" fill="#006DFE"/>
<path d="M1388.49 828.48H1373.21V846.47H1388.49V828.48Z" fill="#006DFE"/>
<path d="M1388.49 868.77H1373.21V886.76H1388.49V868.77Z" fill="#006DFE"/>
<path d="M1388.49 909.07H1373.21V927.06H1388.49V909.07Z" fill="#006DFE"/>
<path d="M2184.83 923.44L2129.14 895.6C2128.25 895.1 2127.51 894.363 2127.01 893.47C2126.5 892.578 2126.26 891.564 2126.29 890.54V884.54C2126.26 883.517 2126.5 882.503 2127.01 881.61C2127.51 880.718 2128.25 879.981 2129.14 879.48L2184.83 851.64C2187.91 850.1 2191.32 852.76 2191.32 856.7V858.83C2191.36 859.863 2191.11 860.885 2190.59 861.784C2190.08 862.682 2189.34 863.422 2188.43 863.92L2150.19 882.45C2146.33 884.31 2146.33 890.74 2150.19 892.61L2188.43 911.14C2189.33 911.637 2190.08 912.375 2190.59 913.272C2191.1 914.168 2191.36 915.189 2191.32 916.22V918.36C2191.32 922.32 2187.91 925 2184.83 923.44Z" fill="#006DFE"/>
<path d="M2235.32 835.94L2209.6 940.63C2209.41 941.705 2208.87 942.684 2208.05 943.41C2207.24 944.136 2206.2 944.566 2205.11 944.63V944.63C2202 944.63 2199.76 941.12 2200.62 937.63L2226.35 832.94C2226.54 831.865 2227.09 830.886 2227.9 830.16C2228.72 829.434 2229.75 829.004 2230.84 828.94C2233.94 828.92 2236.18 832.43 2235.32 835.94Z" fill="#006DFE"/>
<path d="M2306.81 895.6L2251.12 923.44C2248.04 924.98 2244.62 922.32 2244.62 918.38V916.24C2244.59 915.209 2244.84 914.188 2245.35 913.292C2245.86 912.395 2246.61 911.657 2247.51 911.16L2285.76 892.63C2289.61 890.76 2289.61 884.33 2285.76 882.47L2247.51 863.94C2246.61 863.442 2245.86 862.702 2245.35 861.804C2244.84 860.905 2244.58 859.883 2244.62 858.85V856.72C2244.62 852.78 2248.04 850.12 2251.12 851.66L2306.81 879.5C2307.7 880.003 2308.44 880.741 2308.94 881.633C2309.44 882.525 2309.69 883.538 2309.65 884.56V890.56C2309.68 891.58 2309.43 892.588 2308.93 893.476C2308.43 894.365 2307.7 895.099 2306.81 895.6V895.6Z" fill="#006DFE"/>
<path d="M1474.83 1572.4V1706.05H1518.88V1585.76C1506.27 1576.18 1490.64 1571.44 1474.83 1572.4Z" fill="#B0D8FF"/>
<path opacity="0.34" d="M1464.6 1597.64C1464.6 1597.64 1502.6 1604.31 1524.34 1644.75C1546.08 1685.19 1564.09 1640.01 1559.9 1621.51C1555.71 1603.01 1557.9 1584.09 1546.71 1569.89C1535.52 1555.69 1514.15 1535.47 1484.98 1543.22C1455.81 1550.97 1451.98 1546.66 1453.61 1564.08C1455.24 1581.5 1458.01 1600.22 1458.01 1600.22" fill="black"/>
<path d="M1336.4 1953.81C1355.22 1953.81 1370.47 1936.96 1370.47 1916.17C1370.47 1895.38 1355.22 1878.53 1336.4 1878.53C1317.58 1878.53 1302.33 1895.38 1302.33 1916.17C1302.33 1936.96 1317.58 1953.81 1336.4 1953.81Z" fill="#191E56"/>
<path d="M1533 1950C1533 1970.79 1517.75 1987.64 1498.94 1987.64C1480.13 1987.64 1464.87 1970.79 1464.87 1950C1464.87 1929.21 1480.12 1912.35 1498.94 1912.35C1517.76 1912.35 1533 1929.2 1533 1950Z" fill="#191E56"/>
<path d="M1693.85 1916.17C1693.85 1936.97 1678.6 1953.82 1659.78 1953.82C1640.96 1953.82 1625.72 1936.97 1625.72 1916.17C1625.72 1895.37 1640.97 1878.53 1659.78 1878.53C1678.59 1878.53 1693.85 1895.38 1693.85 1916.17Z" fill="#191E56"/>
<path d="M1466.76 1705.39C1466.76 1705.39 1496.49 1693.27 1528.05 1705.39L1528.91 1747.97L1683.59 1875.56V1905.87H1637.92L1637.31 1882.56L1518.88 1790L1519.61 1905.86L1513.74 1933.07H1482.91L1477.22 1906.13L1475.93 1793.23L1358.11 1881.61L1357.62 1904.24L1315.29 1904.51V1872.45L1467 1748.51V1723L1466.76 1705.39Z" fill="#0542BF"/>
<path d="M1577.05 915.59C1577.05 915.59 1627.36 897.74 1702.22 915.59C1777.08 933.44 1821.8 1007.99 1824.28 1068.25C1826.76 1128.51 1799.75 1498.9 1700.67 1592.54C1601.59 1686.18 1351.56 1640.06 1300.46 1620.54C1249.36 1601.02 1211.62 1524.09 1211.62 1524.09L1467.75 1341.93L1481.38 951.03L1577.05 915.59Z" fill="#006DFE"/>
<path d="M1586.67 897.41C1586.67 897.41 1634.2 905.49 1659.35 964.35C1684.5 1023.21 1679.15 1110.8 1672.51 1224.48C1665.87 1338.16 1698.51 1340.95 1702.22 1420.16C1705.93 1499.37 1687.31 1573.91 1582.95 1609.31C1478.59 1644.71 1390.95 1660.66 1256.81 1639.18L1157.11 1525.45L1205.57 1303.68C1205.57 1303.68 1295.8 1213.14 1307.05 1145.19C1318.3 1077.24 1405.88 907.83 1441.31 883.1C1476.74 858.37 1586.67 897.41 1586.67 897.41Z" fill="#004EFC"/>
<path d="M1410.1 896.48L1404 896C1404 896 1341.57 897.86 1322 922.09C1302.43 946.32 1289 1060 1289 1060L1327.67 1351.19C1327.67 1351.19 1350.97 1392.19 1469.31 1392.19C1587.65 1392.19 1634.24 1343.74 1634.24 1343.74L1623.24 1207.39C1623.24 1207.39 1643.05 1176.48 1646.31 1143.39C1649.57 1110.3 1616.96 933.73 1581.55 908.11C1546.14 882.49 1467.87 893.6 1467.87 893.6L1410.1 896.48Z" fill="#FFAB00"/>
<path d="M1546.61 951.46C1546.61 951.46 1530.3 970.56 1536.36 1005.46C1542.42 1040.36 1568.04 1089.33 1558.25 1107.96C1548.46 1126.59 1529.68 1157.66 1533.72 1164.96C1537.76 1172.26 1545.98 1176.3 1545.98 1176.3L1599.41 1210.14C1599.41 1210.14 1613.53 1214.03 1623.24 1207.36L1629.85 1209.22L1472.85 1293.85L1454.85 1267.77C1454.85 1267.77 1511.93 1206.04 1517.05 1185.07C1522.17 1164.1 1518.45 1162.57 1530.1 1141.67C1541.75 1120.77 1553.39 1107.26 1545.94 1084.2C1538.49 1061.14 1524.74 1023.63 1527.53 1001.5C1530.32 979.37 1531.93 965.67 1546.61 951.46Z" fill="#FE8E00"/>
<path d="M1339.75 954.14C1339.75 954.14 1329.93 995.3 1340.31 1045.59L1377.46 1225.59L1383.85 1222.31C1383.85 1222.31 1339.75 1000.93 1339.75 954.14Z" fill="#FE8E00"/>
<path d="M1198 1902.92C1198 1902.92 1194.27 1932.92 1194.35 1957.04C1194.43 1981.16 1210.82 2000.35 1202.45 2022.98C1194.08 2045.61 1125.22 2046.29 1076.17 2052.11C1027.12 2057.93 983.721 2047.4 990.001 2010.56C996.281 1973.72 1075.91 1988.22 1107.13 1942.42C1138.35 1896.62 1128.97 1889.14 1128.97 1889.14L1198 1902.92Z" fill="#FFAB00"/>
<path d="M1460.79 1926.12C1460.79 1926.12 1457.06 1956.12 1457.14 1980.25C1457.22 2004.38 1473.62 2023.56 1465.25 2046.18C1456.88 2068.8 1388 2069.5 1339 2075.31C1290 2081.12 1246.55 2070.6 1252.84 2033.77C1259.13 1996.94 1338.74 2011.42 1369.97 1965.62C1401.2 1919.82 1391.8 1912.35 1391.8 1912.35L1460.79 1926.12Z" fill="#FFAB00"/>
<path d="M1334.78 1345.92L1327.63 1351.2C1327.63 1351.2 1114.87 1419.85 1094.99 1484.45C1075.11 1549.05 1106.79 1919.61 1106.79 1919.61C1106.79 1919.61 1164.57 1965.26 1215.79 1914.95L1219.98 1568.78L1434.98 1489.11L1497.14 1490.98C1497.14 1490.98 1571.69 1437.86 1576.34 1434.13C1580.99 1430.4 1639.71 1388.48 1639.71 1388.48L1603.37 1328.84L1334.78 1345.92Z" fill="#1E2889"/>
<path d="M1088.44 1445.94C1088.44 1445.94 1174.82 1465.41 1190.66 1572.31C1206.5 1679.21 1225.13 1758.07 1225.13 1758.07L1269.13 1600.86L1422.68 1518.46L1518.03 1443.46L1566.21 1332.74L1489.77 1292.51L1257.77 1312.08L1135.7 1375.44L1088.44 1445.94Z" fill="#1A1A7C"/>
<path d="M1486 1380.09C1486 1380.09 1373.53 1476.09 1364.07 1546.88C1354.61 1617.67 1364.07 1929.88 1364.07 1929.88C1364.07 1929.88 1436.61 1978.33 1486 1929.88C1486 1929.88 1465.5 1644.74 1509.29 1596.29C1553.08 1547.84 1630.43 1504.04 1639.75 1432.29C1649.07 1360.54 1634.16 1343.77 1634.16 1343.77L1559.44 1331.66L1486 1380.09Z" fill="#1E2889"/>
<path d="M1344.4 1690.38C1347.2 1682 1386.34 1522.83 1548.47 1559.78L1599.41 1535.39C1599.41 1535.39 1666.1 1480.1 1670.96 1473.27C1675.82 1466.44 1671.7 1409.91 1672.51 1402.45C1673.32 1394.99 1672.51 1312.38 1672.51 1312.38L1351.51 1304.92L1355.86 1419.85L1344.4 1595V1690.38Z" fill="#1A1A7C"/>
<path d="M628.781 2092.28V1347.2C628.781 1344.27 626.404 1341.89 623.471 1341.89H608.931C605.999 1341.89 603.621 1344.27 603.621 1347.2V2092.28C603.621 2095.21 605.999 2097.59 608.931 2097.59H623.471C626.404 2097.59 628.781 2095.21 628.781 2092.28Z" fill="#191E56"/>
<path d="M1866.25 2092.28V1347.2C1866.25 1344.27 1863.87 1341.89 1860.94 1341.89H1846.4C1843.47 1341.89 1841.09 1344.27 1841.09 1347.2V2092.28C1841.09 2095.21 1843.47 2097.59 1846.4 2097.59H1860.94C1863.87 2097.59 1866.25 2095.21 1866.25 2092.28Z" fill="#191E56"/>
<path d="M938.062 1998.95L892.134 1335.49C891.942 1332.72 889.545 1330.63 886.779 1330.82L871.695 1331.87C868.929 1332.06 866.842 1334.46 867.034 1337.22L912.962 2000.69C913.154 2003.45 915.551 2005.54 918.317 2005.35L933.401 2004.3C936.167 2004.11 938.254 2001.71 938.062 1998.95Z" fill="#191E56"/>
<path d="M2135.6 1998.95L2089.67 1335.49C2089.48 1332.72 2087.08 1330.63 2084.32 1330.83L2069.24 1331.87C2066.47 1332.06 2064.38 1334.46 2064.57 1337.22L2110.5 2000.69C2110.69 2003.45 2113.09 2005.54 2115.86 2005.35L2130.94 2004.3C2133.71 2004.11 2135.79 2001.72 2135.6 1998.95Z" fill="#191E56"/>
<path d="M2124.64 1316.73H564.171C558.167 1316.73 553.301 1321.6 553.301 1327.6V1356.18C553.301 1362.18 558.167 1367.05 564.171 1367.05H2124.64C2130.64 1367.05 2135.51 1362.18 2135.51 1356.18V1327.6C2135.51 1321.6 2130.64 1316.73 2124.64 1316.73Z" fill="#0542BF"/>
<path d="M2020.17 1197.92H1693.57V1237.52H2020.17V1197.92Z" fill="#FFAB00"/>
<path d="M2028.82 1237.52H1702.22V1277.12H2028.82V1237.52Z" fill="#00D967"/>
<path d="M2012.98 1277.13H1686.38V1316.73H2012.98V1277.13Z" fill="#DE4D30"/>
<path d="M916 827L933.8 851.23C941.9 833.94 958.97 826.23 969.73 822.92L945.17 804.26C941.923 804.252 938.697 804.776 935.62 805.81C929 807.98 920.62 813.14 916.54 825.32C916.327 825.887 916.147 826.447 916 827Z" fill="#9BB4C9"/>
<path d="M672.65 1032.81C672.656 1038.23 674.499 1043.5 677.879 1047.74C681.258 1051.98 685.975 1054.95 691.26 1056.17C693.017 1056.59 694.816 1056.79 696.62 1056.79C698.182 1056.79 699.739 1056.64 701.27 1056.33C705.736 1055.45 709.86 1053.33 713.162 1050.2C716.464 1047.07 718.808 1043.06 719.921 1038.65C721.034 1034.24 720.87 1029.6 719.448 1025.28C718.025 1020.95 715.404 1017.13 711.888 1014.24C708.373 1011.35 704.109 1009.52 699.593 1008.96C695.077 1008.4 690.495 1009.14 686.382 1011.09C682.269 1013.03 678.795 1016.11 676.364 1019.96C673.932 1023.8 672.645 1028.26 672.65 1032.81V1032.81Z" fill="#4143C5"/>
<path d="M888.001 801.82C888.001 808.185 890.529 814.29 895.03 818.791C899.531 823.292 905.636 825.82 912.001 825.82C913.527 825.819 915.051 825.675 916.551 825.39C920.671 813.21 929.011 808.05 935.631 805.88C935.859 804.559 935.973 803.221 935.971 801.88C935.971 795.515 933.442 789.41 928.941 784.91C924.44 780.409 918.336 777.88 911.971 777.88C905.606 777.88 899.501 780.409 895 784.91C890.499 789.41 887.971 795.515 887.971 801.88L888.001 801.82Z" fill="#4143C5"/>
<path d="M710.871 1013.53C713.55 1015.51 715.788 1018.03 717.441 1020.92L820.441 907.63L841.951 883.97L873.691 849.05L898.551 821.69C895.806 819.828 893.477 817.417 891.711 814.61L861.951 847.35L840.951 870.45L818.951 894.69L710.871 1013.53Z" fill="#9BB4C9"/>
<path d="M660.141 1296.82V1296.33C739.751 1266.95 807.081 1293.9 812.531 1296.18C796.401 1300.47 737.001 1313.5 660.141 1296.82Z" fill="#4143C5"/>
<path d="M691.261 1056.17L727.051 1261.3L731.811 1288.62L732.321 1291.49L741.991 1289.71L741.811 1288.63L736.921 1260.63L701.271 1056.32C699.74 1056.63 698.182 1056.78 696.621 1056.78C694.816 1056.79 693.017 1056.59 691.261 1056.17Z" fill="#9BB4C9"/>
<path d="M930.301 863.48L954.591 918.01L958.791 927.45L995.521 896.33L1028.65 865.63L1048.51 847.22L1041.79 841.37L1041.56 841.28L1041.36 841.19L980.221 815.19C976.999 815.684 973.82 816.423 970.711 817.4C959.951 820.67 942.891 828.4 934.781 845.7C933.844 847.686 933.056 849.738 932.421 851.84C931.264 855.624 930.553 859.531 930.301 863.48V863.48Z" fill="#4143C5"/>
<path d="M1022.88 907.57C1047.16 884.75 1057.82 856.66 1046.69 844.82C1035.56 832.98 1006.87 841.89 982.59 864.7C958.31 887.51 947.66 915.61 958.79 927.45C969.92 939.29 998.61 930.38 1022.88 907.57Z" fill="#859AD0"/>
<path d="M812.521 1296.82H660.141V1316.73H812.521V1296.82Z" fill="#859AD0"/>
<path d="M2220.39 1797.84C2220.39 1799.61 2220.05 1801.36 2219.39 1803C2211.73 1822.53 2161.2 1837.6 2100 1837.6C2038.08 1837.6 1987.07 1822.16 1980.37 1802.3L1979.6 1797.84C1979.6 1775.84 2033.51 1758.07 2100 1758.07C2166.49 1758.07 2220.39 1775.88 2220.39 1797.84Z" fill="#191E56"/>
<path d="M2219.39 1803L2177.87 2047.48C2102.2 2090.56 2022.12 2047.48 2022.12 2047.48L1980.36 1802.3C1987.06 1822.16 2038.07 1837.6 2099.99 1837.6C2161.19 1837.6 2211.72 1822.53 2219.38 1803H2219.39Z" fill="#0542BF"/>
<path d="M1402.25 833.59C1402.25 833.59 1412.43 855 1404 896C1404 896 1410.52 916 1433.35 915.56C1456.18 915.12 1467.83 893.56 1467.83 893.56C1467.83 893.56 1456.96 876.08 1461.46 838.96L1461.77 825.14L1432.89 805.57L1402.25 833.59Z" fill="#FFACA6"/>
<path d="M1400.93 860.61C1400.93 860.61 1441 852.69 1475.79 880.02C1475.79 880.02 1478.13 821.02 1479.7 819.02C1481.27 817.02 1415.22 787.5 1415.22 787.5C1415.22 787.5 1391.93 801.39 1391.31 812.5C1390.69 823.61 1400.93 860.61 1400.93 860.61Z" fill="#EA756C"/>
<path d="M1336.64 721C1336.64 721 1277.34 718.9 1310.57 599.32C1310.57 599.32 1340.99 622.23 1395.03 625.32C1449.07 628.41 1509.33 627.18 1516.79 723.47C1519.89 785.59 1461.5 839.01 1461.5 839.01L1408.68 805.47L1336.64 721Z" fill="#1E2889"/>
<path d="M1293.62 679.79C1293.62 679.79 1294.55 686.73 1320.62 679.79C1346.69 672.85 1379.79 661.95 1423.12 690C1466.45 718.05 1482.53 776.28 1516.89 769.29L1491.14 824.29L1435.04 860.63C1435.04 860.63 1345.63 834.76 1342.17 825.04C1338.71 815.32 1313.17 755.2 1309.44 745.95C1305.71 736.7 1300.44 713.87 1300.44 713.87L1293.62 679.79Z" fill="#172272"/>
<path d="M1334.15 705.77C1334.15 705.77 1318 841.2 1367.7 849C1417.4 856.8 1450.32 799.93 1450.32 799.93C1450.32 799.93 1475.17 796.82 1472.68 770.42C1470.19 744.02 1450.68 753.96 1450.68 753.96C1450.68 753.96 1428.63 744.33 1428.94 721.03C1428.94 721.03 1402.23 727.24 1390.11 702.71C1390.11 702.71 1369.92 716.71 1349.42 695.25C1349.37 695.21 1344.09 708 1334.15 705.77Z" fill="#FFACA6"/>
<path d="M1324.84 723.39C1345.42 725.248 1365.87 728.283 1386.1 732.48C1416.15 739.01 1431.99 782.8 1463.91 777.48C1495.83 772.16 1482.08 754.78 1482.08 754.78L1452.26 714.35L1382.61 691.76L1340.44 684.76L1323.21 698.76L1324.84 723.39Z" fill="#EA756C"/>
<path d="M1546 1176.34C1546 1176.34 1495 1230.06 1456.2 1243.73C1417.4 1257.4 1398.78 1243.58 1383.25 1275.02L1380.14 1281.62C1380.14 1281.62 1436.05 1299.62 1476.43 1279.76L1599.43 1210.18L1546 1176.34Z" fill="#FFACA6"/>
<path d="M1548.47 1283.18H1088.44V1316.73H1548.47V1283.18Z" fill="#78C2FF"/>
<path d="M1426.28 1316.73H1025.6L967.641 1035.94H1368.32L1426.28 1316.73Z" fill="#B0D8FF"/>
<path d="M1396.28 1316.73H995.601L937.641 1035.94H1338.32L1396.28 1316.73Z" fill="#78C2FF"/>
<path d="M2330.36 1169.04H2130.67V1257.33H2330.36V1169.04Z" fill="#DAEBFF"/>
<path d="M2411.1 1257.32H2211.41V1345.61H2411.1V1257.32Z" fill="#EBF5FF"/>
<path d="M1156.85 1193.94C1177.47 1191.01 1191.58 1170.26 1188.37 1147.58C1185.15 1124.89 1165.83 1108.88 1145.21 1111.8C1124.59 1114.72 1110.48 1135.48 1113.69 1158.16C1116.91 1180.84 1136.23 1196.86 1156.85 1193.94Z" fill="white"/>
<path d="M322.82 521.88C322.82 521.88 326.351 476.567 271.133 485.067C229.227 491.505 195.415 541.693 191.165 574.256C186.915 606.82 203.196 649.258 182.665 672.633C162.134 696.009 109.041 691.728 118.259 782.354C127.478 872.981 226.54 817.605 226.54 817.605L317.851 756.041L299.445 615.163L322.82 521.88Z" fill="url(#paint3_linear_3222_885)"/>
<path d="M297.039 539.662C297.039 539.662 278.757 490.286 322.038 497.349C385.35 507.661 371.663 584.194 368.35 594.569C362.413 612.976 373.694 693.415 384.162 708.353C397.912 728.01 412.944 754.948 411.319 779.261L344.163 699.197L297.039 539.662Z" fill="url(#paint4_linear_3222_885)"/>
<path d="M325.477 698.447C325.477 698.447 328.914 661.915 349.633 665.883C370.351 669.852 351.695 671.54 382.476 698.447C413.257 725.353 416.069 759.323 410.413 772.042C404.757 784.761 355.195 772.042 355.195 772.042L325.477 698.447Z" fill="url(#paint5_linear_3222_885)"/>
<path d="M399.101 1169.39C444.913 1461.99 459.413 1533.62 454.288 1583.06C452.194 1603.09 414.101 1649.59 94.9157 1967.44C87.5095 1974.82 55.8535 1932.16 55.8535 1932.16C55.8535 1932.16 160.259 1767.22 201.509 1709.84C220.003 1685.38 239.835 1661.96 260.914 1639.68C281.238 1617.7 295.63 1590.9 302.738 1561.81C309.845 1532.73 309.432 1502.31 301.539 1473.43C275.258 1377.77 242.664 1238.24 261.57 1192.52C272.883 1164.49 399.101 1169.39 399.101 1169.39Z" fill="#2C50A2"/>
<path d="M201.539 1709.72C163.383 1762.84 71.1032 1908.03 57.5721 1929.38C57.1301 1930.06 56.8912 1930.85 56.8843 1931.66V1931.66C56.8431 1932.71 57.1754 1933.74 57.8219 1934.57L68.4156 1948.35C101.634 1896.72 191.852 1758.59 237.164 1711.34C254.914 1692.78 273.414 1671.62 290.289 1651.4C335.737 1597.27 360.84 1528.96 361.257 1458.27C361.757 1379.24 355.194 1280.15 322.663 1240.43C307.414 1221.86 283.101 1222.77 255.539 1234.18C256.133 1296.68 280.539 1398.55 301.132 1473.43C309.026 1502.31 309.438 1532.73 302.331 1561.81C295.224 1590.9 280.831 1617.7 260.508 1639.68C239.582 1661.93 219.896 1685.31 201.539 1709.72V1709.72Z" fill="url(#paint6_linear_3222_885)"/>
<path d="M160.915 1184.86C160.915 1184.86 125.197 1251.99 129.821 1311.37C134.446 1370.74 218.133 1614.5 222.008 1635.09C225.883 1655.69 203.258 1715.78 216.571 1790.91C229.883 1866.03 285.32 2066.63 285.32 2066.63L339.07 2061.51C339.07 2061.51 356.663 1764.91 331.663 1617.28C326.632 1587.56 350.413 1307.9 300.757 1259.68C251.102 1211.46 228.758 1138.61 160.915 1184.86Z" fill="#2C50A2"/>
<path d="M339.038 2061.6C339.038 2061.6 356.631 1765 331.632 1617.37C326.6 1587.65 350.381 1307.99 300.726 1259.77C267.507 1227.61 246.539 1184.39 216.07 1172.99C207.875 1175.85 200.122 1179.85 193.039 1184.86C193.039 1184.86 157.414 1251.99 162.039 1311.37C166.664 1370.74 250.351 1614.5 254.195 1635.09C258.038 1655.69 235.632 1715.78 248.789 1790.91C261.038 1860.63 309.788 2038.51 316.726 2063.63L339.038 2061.6Z" fill="#3E7FD2"/>
<path d="M283.603 2060.41L289.04 2094.32L340.571 2104.07L345.102 2082.26L336.321 2049.44L283.603 2060.41Z" fill="#FAC2B6"/>
<path d="M42.6035 1946.91L57.6659 1929.38L95.0406 1967.32L76.572 1995.44L42.6035 1946.91Z" fill="#FAC2B6"/>
<path d="M282.508 2081.6C282.508 2081.6 301.257 2089.23 316.882 2086.48C326.472 2084.72 335.657 2081.22 343.976 2076.13C355.078 2090.91 369.861 2102.53 386.851 2109.82C413.944 2121.44 455.037 2123.82 457.225 2124.69C461.662 2126.54 460.35 2144.88 460.35 2144.88C460.35 2144.88 304.289 2158.66 282.726 2154.07C261.164 2149.48 282.508 2081.6 282.508 2081.6Z" fill="url(#paint7_linear_3222_885)"/>
<path d="M49.916 1938.82C49.916 1938.82 55.2597 1955.72 65.8846 1964.72C72.4584 1970.22 79.9907 1974.46 88.1031 1977.22C84.356 1993.02 84.8304 2009.52 89.4783 2025.07C96.8533 2050.07 118.353 2079.01 118.978 2080.98C120.228 2085.01 107.009 2094.32 107.009 2094.32C107.009 2094.32 10.135 1996.69 0.978845 1979.57C-8.17733 1962.44 49.916 1938.82 49.916 1938.82Z" fill="url(#paint8_linear_3222_885)"/>
<path d="M250.414 646.945C250.414 646.945 257.257 737.572 249.32 751.635C241.383 765.698 287.632 856.231 300.538 865.013C313.445 873.794 428.287 854.387 357.85 754.916C345.538 737.572 336.851 714.947 330.507 679.915C324.163 644.883 250.414 646.945 250.414 646.945Z" fill="#FAC2B6"/>
<path d="M339.195 717.259C335.487 706.022 332.584 694.534 330.507 682.884C324.257 647.82 250.414 649.945 250.414 649.945C250.414 649.945 252.508 675.571 252.633 699.572C276.07 715.572 305.57 723.916 328.913 721.291C332.632 720.859 336.174 719.47 339.195 717.259V717.259Z" fill="#F5B1A6"/>
<path d="M380.663 554.225C383.601 608.07 374.82 685.947 338.789 687.072C292.102 688.54 225.821 647.696 222.883 593.82C219.946 539.943 250.664 488.692 286.695 486.724C322.726 484.755 377.726 500.349 380.663 554.225Z" fill="#FAC2B6"/>
<path d="M349.976 490.724C349.976 490.724 326.601 479.755 320.945 492.192C315.288 504.63 333.194 527.943 345.507 534.006C382.538 552.194 379.6 595.476 379.6 595.476C379.6 595.476 396.944 515.724 349.976 490.724Z" fill="url(#paint9_linear_3222_885)"/>
<path d="M311.507 484.255C334.069 485.442 341.944 524.88 285.382 538.537C261.382 544.35 245.945 555.662 253.039 576.038C253.976 578.757 267.226 600.101 267.851 602.851C280.913 659.477 215.476 659.477 215.476 659.477C215.476 659.477 160.039 476.254 311.507 484.255Z" fill="url(#paint10_linear_3222_885)"/>
<path d="M786.972 720.509C786.972 720.509 809.347 690.79 811.971 685.696C813.44 682.977 813.159 671.165 812.565 660.696C812.253 655.055 813.068 649.408 814.962 644.085C816.856 638.763 819.791 633.871 823.597 629.695L838.378 613.382C839.053 612.634 839.929 612.094 840.901 611.827C841.874 611.561 842.902 611.578 843.865 611.877C844.828 612.176 845.685 612.744 846.335 613.515C846.985 614.286 847.401 615.226 847.534 616.226C847.534 616.414 847.534 616.601 847.534 616.788C847.534 620.101 837.846 641.789 835.753 646.57C835.534 647.144 835.534 647.778 835.753 648.352L836.159 649.539C836.297 649.945 836.538 650.308 836.859 650.592C837.179 650.876 837.569 651.072 837.988 651.161C838.407 651.249 838.842 651.227 839.25 651.096C839.658 650.965 840.025 650.73 840.315 650.414L883.033 603.538C883.919 602.572 885.058 601.874 886.321 601.523C887.584 601.172 888.92 601.183 890.177 601.554C891.434 601.926 892.561 602.642 893.431 603.623C894.3 604.603 894.877 605.809 895.096 607.101L897.815 623.257C900.596 639.924 896.943 657.026 887.596 671.102C887.596 671.102 859.159 709.29 840.721 726.353C840.721 726.353 823.284 749.197 822.315 748.416L786.972 720.509Z" fill="#FAC2B6"/>
<path d="M840.597 732.979C825.597 749.698 690.223 902.17 624.286 915.545C596.411 921.17 461.1 897.232 405.069 854.356C343.132 806.949 382.35 753.823 382.35 753.823C382.35 753.823 463.6 781.573 498.85 794.449C531.693 806.605 605.942 836.637 616.005 842.106C616.364 842.302 616.776 842.378 617.181 842.321C617.586 842.265 617.963 842.08 618.255 841.793C626.223 834.168 678.848 785.792 725.597 756.76C755.253 738.447 804.659 695.728 804.659 695.728L840.565 733.229L840.597 732.979Z" fill="#FA8517"/>
<path opacity="0.5" d="M840.597 732.979L830.597 722.603C816.503 738.416 776.504 782.917 751.91 806.011C721.692 834.356 633.599 894.232 612.255 899.232C590.912 904.232 561.912 887.325 483.287 854.512C404.663 821.699 378.788 780.229 372.913 776.073L376.35 820.637C383.066 834.027 392.919 845.595 405.069 854.356C461.1 897.232 596.443 921.389 624.286 915.545C690.754 901.576 840.597 732.979 840.597 732.979Z" fill="#FF5918"/>
<path d="M193.947 757.636C210.915 750.104 232.165 745.417 250.415 748.885C250.415 748.885 294.821 847.606 359.008 839.887C366.63 813.727 366.041 785.857 357.32 760.042L353.227 747.823C363.826 747.772 374.305 750.067 383.914 754.542L386.726 755.886C386.726 755.886 422.289 830.637 422.695 883.544C423.101 936.452 412.601 966.577 409.664 999.172C401.882 1085.77 431.819 1224.46 431.819 1224.46C431.819 1224.46 411.757 1249.08 308.133 1260.55C248.134 1267.18 143.104 1228.27 143.104 1228.27C143.104 1228.27 171.228 1152.8 187.884 1114.77C200.665 1085.55 188.603 1061.08 195.978 1007.64C200.009 978.453 185.259 938.264 184.228 912.764C184.103 907.17 221.165 830.106 193.947 757.636Z" fill="url(#paint11_linear_3222_885)"/>
<path d="M585.612 952.959L52.7357 1065.45C24.6871 1071.37 6.74913 1098.91 12.6701 1126.96L31.1752 1214.62C37.0962 1242.67 64.634 1260.61 92.6827 1254.69L625.559 1142.2C653.608 1136.28 671.546 1108.74 665.625 1080.69L647.12 993.026C641.199 964.976 613.661 947.038 585.612 952.959Z" fill="#2C50A2"/>
<path d="M272.709 1085.37L71.673 1127.8C65.3236 1129.14 61.2633 1135.38 62.6037 1141.73L62.8877 1143.07C64.228 1149.42 70.4614 1153.48 76.8107 1152.14L277.847 1109.7C284.197 1108.36 288.257 1102.13 286.917 1095.78L286.633 1094.43C285.293 1088.09 279.059 1084.02 272.709 1085.37Z" fill="#E4F0FF"/>
<path d="M388.988 1108.46L81.3022 1173.41C74.9529 1174.75 70.8922 1180.98 72.2326 1187.33L72.5166 1188.68C73.8569 1195.03 80.0907 1199.09 86.44 1197.75L394.125 1132.8C400.475 1131.46 404.535 1125.22 403.195 1118.87L402.911 1117.53C401.571 1111.18 395.337 1107.12 388.988 1108.46Z" fill="#E4F0FF"/>
<path d="M444.133 1177.49C444.659 1177.6 445.144 1177.85 445.532 1178.22C445.921 1178.6 446.198 1179.07 446.331 1179.59C446.464 1180.11 446.449 1180.66 446.287 1181.17C446.125 1181.68 445.822 1182.14 445.414 1182.49C436.039 1190.39 414.758 1208.02 406.133 1210.24C394.977 1213.11 325.54 1197.52 315.509 1188.36C305.477 1179.21 324.883 1145.27 324.883 1145.27L356.352 1137.27C356.946 1137.07 357.578 1137.02 358.196 1137.11C358.815 1137.2 359.402 1137.44 359.909 1137.81C360.416 1138.18 360.828 1138.66 361.112 1139.22C361.395 1139.78 361.542 1140.39 361.539 1141.02C361.539 1144.83 360.352 1147.89 368.852 1153.52C382.789 1162.71 428.57 1174.3 444.133 1177.49Z" fill="#FAC2B6"/>
<path d="M403.601 1202.43C380.195 1199.68 323.758 1180.55 314.133 1177.05L312.945 1176.68C312.352 1181.55 312.945 1185.8 315.57 1188.27C325.539 1197.64 394.976 1213.11 406.194 1210.14C411.131 1208.29 415.764 1205.7 419.944 1202.49C414.512 1203.09 409.028 1203.07 403.601 1202.43V1202.43Z" fill="#F5B1A6"/>
<path d="M128.541 1027.17C128.541 1027.17 176.728 942.264 212.353 878.263C228.571 849.137 254.134 764.292 221.728 749.604C197.29 738.447 169.509 783.23 134.228 828.949C113.947 855.2 27.9795 1018.92 44.6357 1057.36C53.4168 1077.89 103.072 1109.11 150.26 1127.96C220.071 1155.86 313.102 1185.58 313.102 1185.58C313.102 1185.58 313.102 1154.64 339.164 1142.33L128.541 1027.17Z" fill="#FFA831"/>
<path opacity="0.5" d="M314.039 1176.99C297.602 1172.36 226.29 1136.36 166.103 1116.11C69.2288 1083.55 59.1974 1037.11 68.1973 1014.86C154.603 801.293 207.728 794.261 219.228 766.292C222.352 758.385 222.352 752.917 220.727 749.135C197.29 739.979 170.728 781.042 137.478 824.606C136.416 826.043 135.291 827.481 134.353 828.887C128.103 837.106 115.26 858.731 101.26 885.763C98.4473 891.17 95.6036 896.795 92.7286 902.545C84.135 919.889 75.4475 938.577 67.7288 956.921C65.1664 963.015 62.7286 969.077 60.4474 975.046C58.1662 981.015 56.0099 986.89 54.1975 992.578C50.5831 1002.93 47.5882 1013.49 45.2288 1024.2C44.7288 1026.58 44.2912 1028.89 43.9474 1031.11C43.267 1035.17 42.8601 1039.27 42.729 1043.39C42.439 1048.12 43.1523 1052.86 44.8225 1057.3C45.0836 1057.98 45.3972 1058.64 45.7602 1059.27C46.1039 1059.92 46.5102 1060.58 46.9164 1061.27C47.8789 1062.72 48.9222 1064.12 50.0414 1065.45C51.928 1067.76 53.9413 1069.96 56.0724 1072.05C57.6349 1073.57 59.2914 1075.1 61.0413 1076.64L63.7913 1078.99C65.6663 1080.52 67.666 1082.11 69.7598 1083.67C94.7257 1101.74 121.866 1116.6 150.541 1127.89C220.353 1155.8 313.383 1185.52 313.383 1185.52C313.371 1182.66 313.59 1179.81 314.039 1176.99V1176.99Z" fill="#FA8517"/>
<g opacity="0.81">
<path opacity="0.81" d="M524.163 1014.02C526.632 1010.7 528.913 1007.42 531.413 1004.3C535.566 998.933 540.62 994.333 546.35 990.703C549.083 989.062 552.169 988.097 555.35 987.89C557.728 987.728 560.107 988.19 562.25 989.232C564.394 990.274 566.227 991.858 567.569 993.828C570.043 997.363 571.649 1001.43 572.256 1005.7C573.473 1012.43 573.757 1019.3 573.1 1026.11C573.1 1028.02 573.1 1027.95 574.85 1028.27C579.694 1029.05 584.506 1029.8 589.287 1030.8C593.751 1031.82 597.914 1033.88 601.444 1036.8C603.058 1038.02 604.386 1039.58 605.336 1041.36C606.286 1043.15 606.835 1045.12 606.944 1047.14C606.994 1050 606.236 1052.82 604.756 1055.27C602.117 1059.9 598.396 1063.82 593.913 1066.7C590.538 1069.08 586.975 1071.24 583.475 1073.45C581.787 1074.55 581.881 1074.14 582.756 1075.95C584.788 1080.17 586.944 1084.3 588.788 1088.61C591.206 1093.9 592.535 1099.61 592.694 1105.42C592.875 1107.93 592.457 1110.45 591.474 1112.76C590.49 1115.08 588.969 1117.13 587.037 1118.74C583.617 1121.24 579.374 1122.36 575.163 1121.86C569.525 1121.41 564.027 1119.87 558.975 1117.33C554.35 1115.08 549.913 1112.42 545.382 1109.96L544.288 1109.3C542.913 1111.21 541.6 1113.11 540.225 1114.96C536.06 1120.91 531 1126.18 525.225 1130.58C521.889 1133.2 517.924 1134.9 513.726 1135.52C511.371 1135.86 508.969 1135.56 506.77 1134.65C504.572 1133.74 502.657 1132.26 501.226 1130.36C498.952 1127.48 497.35 1124.13 496.538 1120.55C494.71 1112.82 494.244 1104.84 495.163 1096.96C495.163 1095.99 495.163 1095.02 495.382 1094.05C495.601 1093.08 495.194 1092.86 494.319 1092.8C491.194 1092.49 488.07 1092.21 484.757 1091.74C479.107 1091.02 473.622 1089.34 468.538 1086.77C467.882 1086.42 467.257 1086.02 466.601 1085.64C464.796 1084.62 463.228 1083.24 461.998 1081.57C460.768 1079.9 459.905 1077.99 459.466 1075.97C459.026 1073.94 459.019 1071.85 459.447 1069.82C459.874 1067.79 460.725 1065.88 461.945 1064.2C465.227 1059.56 469.389 1055.6 474.195 1052.55C477.32 1050.52 480.445 1048.64 483.382 1046.77C484.32 1046.17 484.476 1045.67 483.945 1044.64C481.01 1039.34 478.713 1033.7 477.101 1027.86C476.075 1024.46 475.538 1020.94 475.507 1017.39C475.414 1014.82 475.952 1012.26 477.074 1009.94C478.196 1007.62 479.868 1005.6 481.945 1004.08C484.773 1002.38 488.022 1001.51 491.32 1001.58C496.232 1001.64 501.081 1002.71 505.57 1004.7C511.477 1007.02 517.149 1009.9 522.507 1013.3L524.163 1014.02ZM538.694 1081.14V1080.7L550.413 1078.24C551.003 1078.15 551.554 1077.89 552.003 1077.5C552.451 1077.1 552.778 1076.59 552.944 1076.02C555.163 1069.77 557.413 1063.33 559.6 1056.99C559.631 1056.75 559.611 1056.5 559.541 1056.27C559.471 1056.04 559.352 1055.82 559.194 1055.64C557.006 1053.11 554.788 1050.58 552.476 1048.17C549.163 1044.77 545.757 1041.49 542.351 1038.14C542.053 1037.81 541.674 1037.57 541.252 1037.43C540.83 1037.29 540.379 1037.27 539.944 1037.36L518.632 1041.7C518.412 1041.77 518.208 1041.88 518.031 1042.02C517.854 1042.17 517.708 1042.35 517.601 1042.55C514.882 1049.92 512.195 1057.33 509.445 1064.7C509.112 1065.43 509.024 1066.25 509.193 1067.03C509.362 1067.81 509.779 1068.52 510.382 1069.05C514.851 1073.7 519.257 1078.42 523.726 1083.08C523.93 1083.25 524.164 1083.37 524.416 1083.45C524.668 1083.52 524.933 1083.54 525.194 1083.52C529.663 1082.77 534.194 1081.92 538.694 1081.14ZM548.256 1103.02C552.1 1105.11 555.788 1107.27 559.569 1109.27C564.546 1111.97 570.002 1113.66 575.631 1114.27C581.881 1114.74 585.006 1111.83 585.006 1105.58C585.022 1105.47 585.022 1105.35 585.006 1105.24C584.8 1100.75 583.806 1096.34 582.069 1092.21C580.262 1087.46 578.002 1082.89 575.319 1078.58C575.247 1078.42 575.143 1078.28 575.013 1078.17C574.882 1078.05 574.729 1077.97 574.564 1077.92C574.398 1077.87 574.224 1077.85 574.052 1077.88C573.881 1077.9 573.716 1077.96 573.569 1078.05C568.6 1079.99 563.6 1081.8 558.632 1083.74C558.067 1083.96 557.602 1084.38 557.319 1084.92C555.381 1088.8 553.538 1092.71 551.6 1096.58C550.632 1098.86 549.475 1100.8 548.413 1103.11L548.256 1103.02ZM537.85 1105.17C532.788 1100.96 527.851 1096.86 522.976 1092.67C522.611 1092.34 522.179 1092.1 521.709 1091.95C521.24 1091.81 520.744 1091.76 520.257 1091.83C515.069 1092.21 509.913 1092.55 504.632 1092.83C503.538 1092.83 503.101 1093.27 502.944 1094.36C502.006 1101.98 502.227 1109.69 503.601 1117.24C504.043 1119.78 504.977 1122.21 506.351 1124.39C507.086 1125.85 508.341 1126.98 509.868 1127.56C511.395 1128.14 513.084 1128.12 514.601 1127.52C516.445 1126.92 518.192 1126.06 519.788 1124.96C526.933 1119.52 533.05 1112.85 537.85 1105.27V1105.17ZM530.476 1018.08L530.788 1018.45C534.913 1021.83 539.038 1025.24 543.288 1028.58C543.616 1028.81 544.013 1028.92 544.413 1028.89L564.6 1027.61C565.288 1027.61 565.632 1027.33 565.663 1026.61C566.404 1019.51 566.046 1012.35 564.6 1005.36C564.081 1002.9 563.118 1000.56 561.757 998.453C560.979 997.177 559.795 996.2 558.395 995.678C556.995 995.157 555.461 995.122 554.038 995.578C551.547 996.263 549.234 997.478 547.257 999.141C540.778 1004.65 535.126 1011.06 530.476 1018.17V1018.08ZM520.132 1020.45C514.462 1016.66 508.382 1013.51 502.007 1011.08C498.464 1009.67 494.694 1008.92 490.882 1008.86C489.042 1008.75 487.231 1009.36 485.84 1010.57C484.449 1011.78 483.589 1013.49 483.445 1015.33C483.106 1017.94 483.254 1020.59 483.882 1023.14C485.353 1029.37 487.678 1035.36 490.789 1040.95C491.757 1042.8 491.788 1042.8 493.726 1041.95L494.57 1041.61C500.007 1039.67 505.476 1037.74 510.944 1035.86C511.416 1035.72 511.853 1035.48 512.225 1035.16C512.596 1034.83 512.895 1034.43 513.101 1033.99C514.538 1030.86 516.226 1027.95 517.601 1024.95C518.413 1023.64 519.257 1022.14 520.288 1020.55L520.132 1020.45ZM496.382 1085.02C496.679 1084.63 496.911 1084.2 497.069 1083.74C498.069 1079.05 499.007 1074.36 500.194 1069.7C500.27 1069.41 500.273 1069.09 500.202 1068.8C500.132 1068.5 499.989 1068.22 499.788 1067.99L491.601 1056.64C490.851 1055.61 490.132 1054.58 489.351 1053.52C489.278 1053.39 489.179 1053.27 489.059 1053.19C488.94 1053.1 488.802 1053.04 488.657 1053.01C488.512 1052.98 488.362 1052.98 488.217 1053.02C488.073 1053.05 487.937 1053.11 487.82 1053.2C486.882 1053.77 485.913 1054.27 484.976 1054.8C480.368 1057.28 476.077 1060.32 472.195 1063.83C470.248 1065.56 468.702 1067.69 467.664 1070.08C466.938 1071.38 466.731 1072.9 467.085 1074.35C467.438 1075.79 468.327 1077.05 469.57 1077.86C471.401 1079.27 473.421 1080.42 475.57 1081.27C481.96 1083.49 488.651 1084.73 495.413 1084.95C495.733 1085.03 496.056 1085.08 496.382 1085.11V1085.02ZM599.506 1046.7H599.194C599.194 1046.42 599.194 1046.14 598.944 1045.86C598.477 1044.62 597.751 1043.48 596.813 1042.54C595.876 1041.6 594.749 1040.87 593.506 1040.39C587.091 1037.69 580.266 1036.1 573.319 1035.67C573.085 1035.71 572.865 1035.81 572.675 1035.95C572.484 1036.09 572.33 1036.27 572.225 1036.49C571.943 1037.13 571.754 1037.82 571.662 1038.52C570.6 1043.42 569.631 1048.33 568.538 1053.2C568.424 1053.64 568.416 1054.1 568.513 1054.54C568.611 1054.98 568.812 1055.39 569.1 1055.74C571.694 1059.24 574.225 1062.74 576.725 1066.27C577.694 1067.67 577.725 1067.77 579.225 1066.99C583.951 1064.57 588.394 1061.63 592.475 1058.24C595.098 1056.19 597.233 1053.58 598.725 1050.61C599.085 1049.37 599.315 1048.09 599.412 1046.8L599.506 1046.7ZM542.007 1098.49L548.069 1087.21L547.757 1086.92C542.632 1088.02 537.444 1088.92 532.382 1090.3V1090.77L542.007 1098.49ZM508.288 1044.95C504.013 1046.16 499.835 1047.68 495.788 1049.52L502.976 1059.83L508.288 1044.95ZM562.194 1047.3C563.212 1043.36 563.902 1039.35 564.256 1035.3L551.319 1035.77L562.194 1047.3ZM514.319 1084.49L506.569 1076.11H506.226C505.726 1078.74 505.257 1081.36 504.757 1083.99C504.757 1084.86 504.976 1085.2 505.851 1085.14L511.757 1084.8C512.445 1084.92 513.195 1084.74 514.226 1084.58L514.319 1084.49ZM570.881 1070.83L565.819 1063.7H565.444L561.882 1074.14L562.194 1074.36L570.881 1070.83ZM533.788 1030.2C531.975 1028.83 530.413 1027.55 528.788 1026.39C526.163 1024.52 526.788 1024.39 525.163 1027.11C524.101 1028.86 523.163 1030.7 522.038 1032.67L533.788 1030.2Z" fill="white"/>
<path opacity="0.81" d="M537.226 1074.61C529.882 1077.17 521.132 1070.61 520.1 1063.61C519.334 1059.84 520.097 1055.92 522.221 1052.71C524.345 1049.5 527.657 1047.27 531.428 1046.5C535.2 1045.73 539.121 1046.5 542.329 1048.62C545.538 1050.75 547.771 1054.06 548.538 1057.83C549.819 1064.05 546.038 1073.64 537.226 1074.61ZM540.882 1059.45C540.729 1058.56 540.397 1057.71 539.907 1056.94C539.416 1056.18 538.777 1055.52 538.028 1055.01C537.278 1054.5 536.433 1054.15 535.544 1053.97C534.654 1053.8 533.738 1053.8 532.851 1053.99C531.074 1054.34 529.511 1055.38 528.503 1056.89C527.496 1058.4 527.126 1060.24 527.476 1062.02C527.839 1063.81 528.883 1065.38 530.388 1066.41C531.892 1067.45 533.739 1067.85 535.538 1067.55C536.433 1067.39 537.288 1067.06 538.048 1066.56C538.809 1066.06 539.459 1065.42 539.96 1064.66C540.46 1063.9 540.8 1063.05 540.959 1062.15C541.118 1061.26 541.091 1060.34 540.882 1059.45V1059.45Z" fill="white"/>
</g>
<defs>
<linearGradient id="paint0_linear_3222_885" x1="648.691" y1="-188.67" x2="662.441" y2="1233.88" gradientUnits="userSpaceOnUse">
<stop stop-color="#B0D8FF"/>
<stop offset="0.02" stop-color="#B3D9FF"/>
<stop offset="0.15" stop-color="#C4E1FF"/>
<stop offset="0.3" stop-color="#D1E7FF"/>
<stop offset="0.51" stop-color="#D8EAFF"/>
<stop offset="1" stop-color="#DAEBFF"/>
</linearGradient>
<linearGradient id="paint1_linear_3222_885" x1="530.931" y1="1439.26" x2="542.837" y2="1739.61" gradientUnits="userSpaceOnUse">
<stop offset="0.37" stop-color="#86CF94"/>
<stop offset="0.99" stop-color="#008166"/>
</linearGradient>
<linearGradient id="paint2_linear_3222_885" x1="1837.43" y1="-17.2498" x2="1837.43" y2="1119.2" gradientUnits="userSpaceOnUse">
<stop stop-color="#B0D8FF"/>
<stop offset="0.02" stop-color="#B3D9FF"/>
<stop offset="0.15" stop-color="#C4E1FF"/>
<stop offset="0.3" stop-color="#D1E7FF"/>
<stop offset="0.51" stop-color="#D8EAFF"/>
<stop offset="1" stop-color="#DAEBFF"/>
</linearGradient>
<linearGradient id="paint3_linear_3222_885" x1="150.759" y1="585.225" x2="319.763" y2="754.255" gradientUnits="userSpaceOnUse">
<stop stop-color="#2C50A2"/>
<stop offset="1"/>
</linearGradient>
<linearGradient id="paint4_linear_3222_885" x1="268.695" y1="532.068" x2="463.605" y2="726.941" gradientUnits="userSpaceOnUse">
<stop stop-color="#2C50A2"/>
<stop offset="1"/>
</linearGradient>
<linearGradient id="paint5_linear_3222_885" x1="325.477" y1="721.635" x2="412.757" y2="721.635" gradientUnits="userSpaceOnUse">
<stop stop-color="#2C50A2"/>
<stop offset="1"/>
</linearGradient>
<linearGradient id="paint6_linear_3222_885" x1="-64.7085" y1="1722.25" x2="435.482" y2="1433.44" gradientUnits="userSpaceOnUse">
<stop stop-opacity="0.6"/>
<stop offset="0.01" stop-color="#010102" stop-opacity="0.61"/>
<stop offset="0.1" stop-color="#0C1529" stop-opacity="0.71"/>
<stop offset="0.21" stop-color="#15264A" stop-opacity="0.8"/>
<stop offset="0.32" stop-color="#1D3465" stop-opacity="0.87"/>
<stop offset="0.45" stop-color="#233F7A" stop-opacity="0.93"/>
<stop offset="0.58" stop-color="#284689" stop-opacity="0.97"/>
<stop offset="0.75" stop-color="#2A4B91" stop-opacity="0.99"/>
<stop offset="1" stop-color="#2B4C94"/>
</linearGradient>
<linearGradient id="paint7_linear_3222_885" x1="366.663" y1="2076.13" x2="366.663" y2="2155.01" gradientUnits="userSpaceOnUse">
<stop/>
<stop offset="0.2" stop-color="#0A1224"/>
<stop offset="0.58" stop-color="#1C3160"/>
<stop offset="0.85" stop-color="#274586"/>
<stop offset="1" stop-color="#2B4C94"/>
</linearGradient>
<linearGradient id="paint8_linear_3222_885" x1="98.7259" y1="1986.09" x2="45.3785" y2="2030.43" gradientUnits="userSpaceOnUse">
<stop/>
<stop offset="0.2" stop-color="#0A1224"/>
<stop offset="0.58" stop-color="#1C3160"/>
<stop offset="0.85" stop-color="#274586"/>
<stop offset="1" stop-color="#2B4C94"/>
</linearGradient>
<linearGradient id="paint9_linear_3222_885" x1="319.851" y1="540.881" x2="382.725" y2="540.881" gradientUnits="userSpaceOnUse">
<stop stop-color="#2C50A2"/>
<stop offset="0.13" stop-color="#2B4C97"/>
<stop offset="0.71" stop-color="#263B6D"/>
<stop offset="1" stop-color="#24355D"/>
</linearGradient>
<linearGradient id="paint10_linear_3222_885" x1="217.883" y1="523.005" x2="298.915" y2="604.036" gradientUnits="userSpaceOnUse">
<stop stop-color="#2C50A2"/>
<stop offset="0.13" stop-color="#2B4C97"/>
<stop offset="0.71" stop-color="#263B6D"/>
<stop offset="1" stop-color="#24355D"/>
</linearGradient>
<linearGradient id="paint11_linear_3222_885" x1="143.197" y1="1004.48" x2="431.913" y2="1004.48" gradientUnits="userSpaceOnUse">
<stop stop-color="#FF5918"/>
<stop offset="0.43" stop-color="#FF7822"/>
<stop offset="1" stop-color="#FFA831"/>
</linearGradient>
</defs>
</svg>
